<?xml version="1.0" encoding="utf-8"?><svg xmlns="http://www.w3.org/2000/svg" xmlns:xlink="http://www.w3.org/1999/xlink"><symbol fill="none" viewBox="0 0 147 148" id="assortiment" xmlns="http://www.w3.org/2000/svg"><circle cx="73.394" cy="73.834" r="73.317" fill="#0157A0"/><mask id="aa" maskUnits="userSpaceOnUse" x="0" y="0" width="147" height="148"><circle cx="73.394" cy="73.834" r="73.317" fill="#0157A0"/></mask><g mask="url(#aa)" fill="#006ACC"><path d="M113.026 58.08a2.985 2.985 0 00-.165-.85 2.627 2.627 0 00-.136-.3 2.77 2.77 0 00-.368-.566 2.18 2.18 0 00-.223-.249c-.044-.043-.073-.1-.123-.142L32.287-9.137a2.69 2.69 0 00-3.42 0l-79.725 65.11c-.05.043-.079.1-.123.142-.08.078-.155.16-.223.25a2.847 2.847 0 00-.368.566 2.625 2.625 0 00-.136.3 2.9 2.9 0 00-.163.849c0 .042-.026.078-.026.124v101.912c0 1.563 1.231 2.831 2.75 2.831h10.996c1.518 0 2.749-1.268 2.749-2.831V72.358H96.555v87.758c0 1.563 1.231 2.831 2.75 2.831H110.3c1.518 0 2.749-1.268 2.749-2.831V58.204c0-.046-.022-.082-.024-.124zM30.576-3.295l71.835 58.668H-41.257L30.577-3.295zM-40.9 157.285h-5.498v-96.25h5.498v96.25zm5.498-90.588v-5.662H96.555v5.662H-35.402zm142.954 90.588h-5.499v-96.25h5.499v96.25z"/><path d="M30.576 32.725c6.073 0 10.997-5.068 10.997-11.323 0-6.253-4.924-11.323-10.997-11.323-6.072 0-10.996 5.07-10.996 11.323 0 6.255 4.924 11.323 10.997 11.323zm0-16.985c3.037 0 5.499 2.535 5.499 5.662s-2.462 5.662-5.499 5.662c-3.036 0-5.498-2.535-5.498-5.662s2.462-5.662 5.498-5.662zM16.831 35.556h27.491v5.662h-27.49v-5.662zM16.831 44.05h27.491v5.66h-27.49v-5.66zM90.664 93.547l-8.248-14.154a2.732 2.732 0 00-2.355-1.373h-96.22c-.834 0-1.625.391-2.146 1.062L-29.3 93.236l.032.029a2.82 2.82 0 00-.635 1.74v50.956c0 1.564 1.231 2.831 2.75 2.831h21.992v11.324c0 1.563 1.231 2.831 2.75 2.831h65.978c1.518 0 2.75-1.268 2.75-2.831v-11.324h21.992c1.518 0 2.75-1.267 2.75-2.831V95.005a2.809 2.809 0 00-.432-1.432l.038-.026zm-7.211-1.373H33.326v-8.492h45.179l4.948 8.492zm-55.626 19.817h5.499v11.323h-5.498v-11.323zm-24.521-5.662l6.597-8.493h43.86l4.948 8.493H3.306zM-14.84 83.682h42.667v8.492h-49.264l6.597-8.492zm-9.567 59.448V97.836H2.865l-7.421 9.554.032.029a2.829 2.829 0 00-.638 1.741v33.97h-19.244zm85.223 14.155H.337v-45.294h21.992v14.154c0 1.563 1.231 2.831 2.75 2.831h10.996c1.518 0 2.749-1.268 2.749-2.831v-14.154h21.993v45.294zm24.742-14.155H66.315v-33.97a2.807 2.807 0 00-.43-1.432l.037-.027-5.748-9.865h25.385v45.294z"/></g><g clip-path="url(#aclip0)" fill="#fff"><path d="M107.81 66.435a1.155 1.155 0 00-.069-.339 1.232 1.232 0 00-.057-.12 1.107 1.107 0 00-.153-.226 1.043 1.043 0 00-.093-.1c-.019-.017-.031-.04-.052-.056L74.11 39.579a1.162 1.162 0 00-1.427 0L39.407 65.594c-.021.017-.033.04-.052.057a.994.994 0 00-.093.099 1.13 1.13 0 00-.154.226c-.02.04-.04.079-.056.12-.04.11-.063.223-.069.34 0 .016-.01.03-.01.05v40.717a1.14 1.14 0 001.147 1.131h4.59a1.14 1.14 0 001.148-1.131V72.14h55.077v35.063a1.14 1.14 0 001.148 1.131h4.589a1.14 1.14 0 001.148-1.131V66.485c0-.018-.009-.032-.01-.05zM73.396 41.914l29.983 23.44H43.414l29.982-23.44zm-29.833 64.158h-2.295V67.616h2.295v38.456zm2.295-36.194v-2.262h55.077v2.262H45.858zm59.667 36.194h-2.295V67.616h2.295v38.456z"/><path d="M73.396 56.306c2.535 0 4.59-2.025 4.59-4.525 0-2.498-2.055-4.524-4.59-4.524-2.534 0-4.59 2.026-4.59 4.524 0 2.5 2.056 4.525 4.59 4.525zm0-6.787c1.268 0 2.295 1.013 2.295 2.262 0 1.25-1.027 2.263-2.295 2.263-1.267 0-2.294-1.013-2.294-2.263 0-1.249 1.027-2.262 2.294-2.262zM67.66 57.437h11.474v2.262H67.659v-2.262zM67.66 60.83h11.474v2.262H67.659V60.83zM98.476 80.606l-3.442-5.655a1.15 1.15 0 00-.984-.548H53.89c-.349 0-.679.156-.896.424l-4.59 5.655.014.011c-.167.195-.26.44-.265.696v20.359a1.14 1.14 0 001.147 1.131h9.18v4.524a1.14 1.14 0 001.147 1.131h27.539c.633 0 1.147-.506 1.147-1.131v-4.524h9.18a1.14 1.14 0 001.147-1.131v-20.36a1.089 1.089 0 00-.18-.571l.016-.01zm-3.01-.548H74.544v-3.393H93.4l2.065 3.393zM72.25 87.975h2.295V92.5h-2.295v-4.524zm-10.235-2.262l2.754-3.393h18.306l2.065 3.393H62.014zm-7.573-9.048h17.808v3.393H51.687l2.754-3.393zm-3.994 23.752V82.32H61.83l-3.098 3.817.014.012c-.167.194-.261.44-.266.695v13.573h-8.032zm35.571 5.655H60.775V87.975h9.18v5.655a1.14 1.14 0 001.147 1.132h4.59a1.14 1.14 0 001.147-1.132v-5.655h9.18v18.097zm10.327-5.655h-8.032V86.844a1.088 1.088 0 00-.18-.572l.016-.01-2.399-3.942h10.595v18.097z"/></g><defs><clipPath id="aclip0"><path fill="#fff" transform="translate(38.394 39.334)" d="M0 0h70v69H0z"/></clipPath></defs></symbol><symbol fill="none" viewBox="0 0 148 148" id="canal" xmlns="http://www.w3.org/2000/svg"><circle cx="74.271" cy="73.755" r="73.317" fill="#0157A0"/><mask id="ba" maskUnits="userSpaceOnUse" x="0" y="0" width="148" height="148"><circle cx="74.271" cy="73.755" r="73.317" fill="#0157A0"/></mask><g mask="url(#ba)" fill="#006ACC"><path d="M-16.054 104.346l40.373 21.567c.421.225.89.338 1.36.338.47 0 .94-.113 1.361-.338l40.373-21.567c.841-.45 1.36-1.281 1.36-2.18V59.031c0-.9-.519-1.73-1.36-2.18L27.04 35.283a2.911 2.911 0 00-2.72 0l-40.374 21.568c-.841.45-1.36 1.28-1.36 2.18v43.135c0 .899.519 1.73 1.36 2.18zm4.082-40.955l34.93 18.66v37.322l-34.93-18.661v-37.32zm37.652 14.3l-34.931-18.66 14.744-7.877 34.931 18.66-14.744 7.877zm2.72 41.682V82.052l34.931-18.66v37.32l-34.93 18.661zM25.68 40.37l34.93 18.66-14.744 7.878-34.93-18.66L25.68 40.37z"/><path d="M56.53 82.543a2.912 2.912 0 00-2.722 0l-18.605 9.939c-.842.45-1.36 1.28-1.36 2.18v11.628c0 .9.518 1.731 1.36 2.18.42.225.89.338 1.36.338.47 0 .94-.113 1.36-.338l18.606-9.939c.842-.45 1.36-1.28 1.36-2.18V84.723c0-.9-.518-1.73-1.36-2.18zm-4.082 12.355l-13.164 7.032v-5.815l13.164-7.031v5.814z"/><path d="M97.78 98.834V62.362c6.428-2.833 10.883-8.903 10.883-15.92 0-9.717-8.544-17.622-19.047-17.622-4.013 0-7.738 1.157-10.812 3.126L44.66 13.706c.04-.469.067-.94.067-1.418 0-9.718-8.544-17.624-19.046-17.624-10.503 0-19.047 7.906-19.047 17.623 0 .478.027.95.067 1.418l-34.145 18.24c-3.074-1.968-6.799-3.126-10.812-3.126-10.502 0-19.047 7.906-19.047 17.623 0 7.017 4.455 13.086 10.884 15.92v36.472c-6.429 2.833-10.883 8.903-10.883 15.919 0 9.718 8.544 17.623 19.046 17.623 4.013 0 7.738-1.157 10.812-3.126L6.7 147.491c-.04.468-.067.939-.067 1.417 0 9.718 8.544 17.623 19.047 17.623 10.502 0 19.046-7.905 19.046-17.623 0-.478-.026-.95-.067-1.417l34.145-18.241c3.074 1.969 6.8 3.126 10.812 3.126 10.503 0 19.047-7.905 19.047-17.623 0-7.016-4.455-13.085-10.884-15.919zm-5.443-1.521a20.65 20.65 0 00-2.72-.183c-.925 0-1.832.065-2.722.183v-33.43c.89.118 1.797.183 2.721.183.924 0 1.832-.065 2.721-.183v33.43zm10.884-50.87c0 6.941-6.103 12.588-13.605 12.588-7.501 0-13.604-5.647-13.604-12.588 0-6.941 6.103-12.588 13.604-12.588 7.502 0 13.605 5.647 13.605 12.588zM74.663 35.547a17.363 17.363 0 00-2.728 4.357L40.633 23.183a17.363 17.363 0 002.728-4.357l31.302 16.721zM25.68-.3c7.502 0 13.604 5.647 13.604 12.588 0 6.942-6.102 12.588-13.604 12.588-7.502 0-13.605-5.646-13.605-12.588C12.075 5.347 18.178-.3 25.68-.3zM10.727 23.184l-31.302 16.722a17.35 17.35 0 00-2.729-4.359L7.998 18.826a17.358 17.358 0 002.73 4.358zm-62.589 23.259c0-6.941 6.103-12.588 13.605-12.588 7.502 0 13.605 5.647 13.605 12.588 0 6.941-6.103 12.588-13.605 12.588-7.502 0-13.605-5.647-13.605-12.588zm10.884 17.44c.89.118 1.797.183 2.721.183.924 0 1.832-.065 2.72-.183v22.72c0 1.391 1.22 2.518 2.722 2.518 1.503 0 2.72-1.127 2.72-2.517V62.362c6.43-2.833 10.884-8.903 10.884-15.92 0-.476-.026-.947-.066-1.414L14.87 26.786c3.073 1.968 6.797 3.125 10.81 3.125 4.013 0 7.738-1.158 10.812-3.127l34.145 18.24c-.04.47-.067.94-.067 1.418 0 7.017 4.455 13.086 10.884 15.92v36.472c-6.43 2.833-10.884 8.903-10.884 15.919 0 .478.026.949.067 1.418l-34.145 18.24c-3.074-1.968-6.8-3.125-10.812-3.125-4.014 0-7.739 1.157-10.813 3.126l-34.145-18.241c.041-.468.067-.94.067-1.417 0-7.016-4.454-13.086-10.883-15.92v-13.2c0-1.391-1.218-2.518-2.721-2.518-1.503 0-2.721 1.127-2.721 2.517v11.68a20.65 20.65 0 00-2.721-.183c-.924 0-1.832.065-2.72.183v-33.43zm-10.884 50.87c0-6.941 6.103-12.588 13.605-12.588 7.502 0 13.605 5.647 13.605 12.588 0 6.942-6.103 12.588-13.605 12.588-7.502 0-13.605-5.646-13.605-12.588zm28.559 10.896a17.355 17.355 0 002.728-4.357l31.301 16.722a17.367 17.367 0 00-2.728 4.356l-31.302-16.721zm48.983 35.848c-7.502 0-13.605-5.647-13.605-12.588 0-6.941 6.103-12.588 13.605-12.588 7.502 0 13.604 5.647 13.604 12.588 0 6.941-6.102 12.588-13.604 12.588zm14.953-23.484l31.302-16.721a17.373 17.373 0 002.728 4.357L43.36 142.37a17.373 17.373 0 00-2.728-4.357zm48.983-10.672c-7.501 0-13.604-5.646-13.604-12.588 0-6.941 6.103-12.588 13.604-12.588 7.502 0 13.605 5.647 13.605 12.588 0 6.942-6.103 12.588-13.605 12.588z"/></g><g clip-path="url(#bclip0)" fill="#fff"><path d="M55.964 84.815l17.606 10.29a1.174 1.174 0 001.186 0l17.606-10.29c.367-.215.593-.611.593-1.04v-20.58c0-.43-.226-.826-.593-1.04l-17.606-10.29a1.174 1.174 0 00-1.186 0l-17.606 10.29a1.204 1.204 0 00-.593 1.04v20.58c0 .429.226.825.593 1.04zm1.78-19.54l15.232 8.903v17.806l-15.232-8.903V65.275zm16.419 6.823L58.93 63.195l6.43-3.758 15.233 8.903-6.43 3.758zm1.186 19.886V74.178l15.233-8.903v17.806l-15.233 8.903zm-1.186-37.692l15.232 8.903-6.43 3.758-15.232-8.903 6.43-3.758z"/><path d="M87.615 74.412a1.174 1.174 0 00-1.186 0l-8.113 4.743a1.204 1.204 0 00-.594 1.04v5.548c0 .429.227.825.594 1.04a1.174 1.174 0 001.186 0l8.114-4.742c.367-.215.593-.611.593-1.04v-5.548c0-.43-.227-.826-.594-1.04zm-1.78 5.895l-5.74 3.355v-2.774l5.74-3.355v2.774z"/><path d="M105.603 82.185v-17.4a8.426 8.426 0 004.747-7.596c0-4.636-3.726-8.408-8.306-8.408-1.75 0-3.375.552-4.715 1.491l-14.89-8.703c.018-.223.03-.448.03-.676 0-4.636-3.726-8.408-8.306-8.408-4.58 0-8.306 3.772-8.306 8.408 0 .228.012.453.03.676l-14.89 8.703a8.188 8.188 0 00-4.715-1.491c-4.58 0-8.306 3.771-8.306 8.408a8.426 8.426 0 004.746 7.595v17.401a8.426 8.426 0 00-4.746 7.596c0 4.636 3.726 8.408 8.306 8.408 1.75 0 3.374-.552 4.715-1.492l14.89 8.703a8.53 8.53 0 00-.03.676c0 4.637 3.726 8.408 8.306 8.408 4.58 0 8.306-3.771 8.306-8.408 0-.228-.012-.453-.03-.676l14.89-8.703a8.188 8.188 0 004.715 1.492c4.58 0 8.306-3.772 8.306-8.408a8.426 8.426 0 00-4.747-7.596zm-2.373-.725a8.22 8.22 0 00-2.373 0V65.51a8.22 8.22 0 002.373 0v15.95zm4.747-24.271c0 3.312-2.662 6.006-5.933 6.006s-5.933-2.694-5.933-6.006c0-3.312 2.662-6.006 5.933-6.006s5.933 2.694 5.933 6.006zM95.523 51.99a8.435 8.435 0 00-1.19 2.08l-13.65-7.979a8.436 8.436 0 001.19-2.078l13.65 7.977zm-21.36-17.103c3.271 0 5.932 2.694 5.932 6.006 0 3.312-2.66 6.006-5.932 6.006-3.272 0-5.933-2.694-5.933-6.006 0-3.312 2.661-6.006 5.933-6.006zm-6.52 11.205l-13.65 7.978a8.438 8.438 0 00-1.19-2.08l13.65-7.977a8.434 8.434 0 001.19 2.079zM40.349 57.189c0-3.312 2.661-6.006 5.933-6.006 3.271 0 5.932 2.694 5.932 6.006 0 3.312-2.66 6.006-5.932 6.006-3.272 0-5.933-2.694-5.933-6.006zm4.746 8.32a8.236 8.236 0 002.373 0V76.35c0 .663.531 1.201 1.187 1.201.655 0 1.186-.538 1.186-1.2V64.783a8.426 8.426 0 004.717-8.27l14.89-8.704a8.188 8.188 0 004.715 1.491c1.75 0 3.374-.552 4.715-1.491l14.89 8.702a8.426 8.426 0 004.717 8.272v17.401a8.426 8.426 0 00-4.718 8.272l-14.89 8.703a8.19 8.19 0 00-4.714-1.492c-1.75 0-3.375.553-4.715 1.492l-14.89-8.703a8.426 8.426 0 00-4.717-8.272v-6.298c0-.663-.53-1.201-1.186-1.201-.656 0-1.187.538-1.187 1.201v5.573a8.237 8.237 0 00-1.186-.088c-.403 0-.799.031-1.187.088V65.51zM40.35 89.782c0-3.312 2.661-6.006 5.933-6.006 3.271 0 5.932 2.694 5.932 6.006 0 3.311-2.66 6.005-5.932 6.005-3.272 0-5.933-2.694-5.933-6.005zm12.454 5.198a8.435 8.435 0 001.19-2.079l13.649 7.978a8.442 8.442 0 00-1.19 2.079l-13.65-7.978zm21.36 17.103c-3.272 0-5.933-2.694-5.933-6.005 0-3.312 2.661-6.006 5.933-6.006 3.271 0 5.932 2.694 5.932 6.006 0 3.311-2.66 6.005-5.932 6.005zm6.52-11.204l13.65-7.978c.299.753.701 1.452 1.19 2.079l-13.65 7.978a8.442 8.442 0 00-1.19-2.079zm21.361-5.091c-3.271 0-5.933-2.695-5.933-6.006 0-3.312 2.662-6.006 5.933-6.006s5.933 2.694 5.933 6.006c0 3.311-2.662 6.005-5.933 6.005z"/></g><defs><clipPath id="bclip0"><path fill="#fff" transform="translate(33.663 32.485)" d="M0 0h81v82H0z"/></clipPath></defs></symbol><symbol fill="none" viewBox="0 0 13 10" id="check" xmlns="http://www.w3.org/2000/svg"><rect x="4.364" y="8.43" width="10.713" height="1.148" rx=".574" transform="rotate(-45 4.364 8.43)" fill="#006ACC"/><rect x="5.118" y="9.201" width="5.984" height="1.148" rx=".574" transform="rotate(-135 5.118 9.2)" fill="#006ACC"/></symbol><symbol fill="none" viewBox="0 0 148 148" id="employ" xmlns="http://www.w3.org/2000/svg"><circle cx="74.271" cy="74.308" r="73.317" fill="#0157A0"/><mask id="da" maskUnits="userSpaceOnUse" x="0" y="0" width="148" height="148"><circle cx="74.271" cy="74.308" r="73.317" fill="#0157A0"/></mask><g mask="url(#da)" fill="#006ACC"><path d="M115.4 126.32c-2.067-12.087-10.768-22.006-22.706-25.882l-26.5-8.604v-3.838h-6.16v5.629l-4.598 17.914-12.44-14.542h-9.045l-12.44 14.542-4.595-17.914v-5.629h-6.16v3.838l-26.5 8.604c-11.935 3.876-20.636 13.795-22.705 25.882L-45.24 166h167.428l-6.788-39.68zM23.485 160H-10.48l2.74-26.702-6.128-.597-2.803 27.302h-21.295l5.593-32.693c1.691-9.891 8.812-18.004 18.579-21.178l25.45-8.265 6.824 26.59 6.946-8.118 3.674 5.37L23.485 160zm23.759 0H29.707l5.824-39.713-5.994-8.757 7.3-8.533h3.274l7.3 8.533-5.994 8.757L47.244 160zm46.377 0l-2.802-27.302-6.13.597 2.742 26.702H53.465l-5.614-38.291 3.674-5.37 6.945 8.118 6.825-26.59 25.45 8.265c9.766 3.171 16.884 11.287 18.578 21.178L114.916 160H93.622z"/><path d="M-.203 60.828C1.368 66.093 4.27 70.92 8.36 74.904l12.011 11.7c2.908 2.833 6.773 4.393 10.888 4.393h14.435c4.112 0 7.98-1.56 10.888-4.392l12.012-11.7c4.09-3.985 6.991-8.815 8.562-14.077 7.672-.846 13.678-7.135 13.678-14.833 0-4.923-2.482-9.264-6.255-12h.095v-18c0-7.51-5.698-13.75-13.102-14.833-4.635-12.565-17.038-21.17-30.88-21.17h-2.217C13.001-20.007-7.724.182-7.724 24.995v9h.096c-3.773 2.737-6.256 7.078-6.256 12.001 0 7.699 6.006 13.987 13.681 14.833zm72.557-9.262c0 7.216-2.882 13.996-8.118 19.096l-12.012 11.7c-1.719 1.675-4.1 2.635-6.533 2.635H31.256c-2.433 0-4.811-.96-6.533-2.634l-12.011-11.7c-5.236-5.101-8.12-11.881-8.12-19.093V36.995h12.102c13.555 0 26.37-4.69 36.497-13.279l.942 1.53c3.93 6.382 10.731 10.624 18.221 11.548v14.773zm12.32-5.57c0 3.956-2.655 7.29-6.305 8.49.087-.963.145-1.935.145-2.916V37.546c3.576 1.242 6.16 4.542 6.16 8.448zM-1.564 24.993c0-21.504 17.962-39.001 40.04-39.001h2.217c11.833 0 22.37 7.74 25.622 18.826l.637 2.175h2.323c5.094 0 9.24 4.038 9.24 9v15.304a15.782 15.782 0 00-3.08-.303c-6.524 0-12.662-3.384-16.02-8.836l-4.93-8.004-2.79 2.718c-9.348 9.105-21.776 14.122-34.998 14.122H1.516c-1.053 0-2.085.105-3.08.303v-6.303zm0 12.553V51.57c0 .98.058 1.953.145 2.919-3.65-1.203-6.305-4.537-6.305-8.494 0-3.906 2.584-7.206 6.16-8.448z"/></g><g clip-path="url(#dclip0)" fill="#fff"><path d="M108.896 93.613c-.844-5.003-4.399-9.11-9.275-10.714l-10.824-3.562V77.75H86.28v2.33l-1.879 7.415-5.08-6.02h-3.696l-5.081 6.02-1.877-7.415v-2.33h-2.516v1.588L55.327 82.9c-4.875 1.605-8.429 5.71-9.274 10.714l-2.774 16.426h68.389l-2.772-16.426zm-37.545 13.942H57.477l1.12-11.053-2.504-.247-1.144 11.302H46.25l2.285-13.534c.69-4.094 3.6-7.453 7.589-8.767l10.395-3.421 2.788 11.007 2.837-3.36 1.5 2.222-2.293 15.851zm9.705 0h-7.163l2.379-16.44-2.449-3.624 2.982-3.532h1.337l2.982 3.532-2.448 3.625 2.38 16.439zm18.944 0l-1.145-11.301-2.504.247 1.12 11.053H83.597l-2.293-15.85 1.5-2.224 2.838 3.36 2.788-11.006 10.395 3.421c3.989 1.313 6.897 4.672 7.589 8.767l2.284 13.533H100z"/><path d="M61.675 66.502a13.542 13.542 0 003.498 5.827l4.906 4.844a6.288 6.288 0 004.448 1.818h5.896a6.29 6.29 0 004.447-1.818l4.907-4.844a13.55 13.55 0 003.497-5.827c3.134-.35 5.587-2.953 5.587-6.14 0-2.038-1.014-3.835-2.555-4.968h.04v-7.452c0-3.108-2.328-5.691-5.353-6.14-1.893-5.2-6.96-8.763-12.613-8.763h-.906c-10.405 0-18.87 8.357-18.87 18.63v3.725h.038c-1.54 1.133-2.555 2.93-2.555 4.968 0 3.187 2.453 5.79 5.588 6.14zm29.638-3.834c0 2.987-1.178 5.794-3.316 7.905l-4.907 4.844a3.825 3.825 0 01-2.668 1.09h-5.897a3.827 3.827 0 01-2.668-1.09l-4.906-4.844a11.032 11.032 0 01-3.317-7.904v-6.033h4.943c5.537 0 10.772-1.941 14.908-5.497l.385.633c1.605 2.642 4.383 4.398 7.443 4.78v6.116zm5.032-2.306c0 1.638-1.084 3.018-2.575 3.514.035-.398.06-.8.06-1.207v-5.804c1.46.514 2.515 1.88 2.515 3.497zM61.12 51.668c0-8.902 7.337-16.145 16.355-16.145h.906c4.834 0 9.137 3.204 10.466 7.793l.26.9h.949c2.08 0 3.774 1.672 3.774 3.726v6.336a6.369 6.369 0 00-1.258-.126c-2.665 0-5.172-1.4-6.543-3.657l-2.014-3.314-1.14 1.125c-3.818 3.77-8.895 5.846-14.295 5.846h-6.201c-.43 0-.852.044-1.259.126v-2.61zm0 5.197v5.804c0 .406.024.809.06 1.209-1.491-.498-2.576-1.878-2.576-3.516 0-1.617 1.056-2.983 2.516-3.498z"/></g><defs><clipPath id="dclip0"><path fill="#fff" transform="translate(38.474 33.04)" d="M0 0h78v77H0z"/></clipPath></defs></symbol><symbol fill="none" viewBox="0 0 304 6" id="line-left" xmlns="http://www.w3.org/2000/svg"><path d="M3.58 2.61h299.464" stroke="#E5E5E5"/><circle cx="3.223" cy="2.536" r="2.497" fill="#E5E5E5"/></symbol><symbol fill="none" viewBox="0 0 303 6" id="line-right" xmlns="http://www.w3.org/2000/svg"><path d="M300.146 2.61H.682" stroke="#E5E5E5"/><circle r="2.497" transform="matrix(-1 0 0 1 300.503 2.536)" fill="#E5E5E5"/></symbol><symbol fill="none" viewBox="0 0 204 76" id="logo" xmlns="http://www.w3.org/2000/svg"><path d="M57.306 38.327l4.096-4.096-8.668-8.668-4.096 4.095a21.828 21.828 0 00-4.51-1.858v-5.683c3.96-2.13 6.129-5.629 6.129-9.925 0-5.177-3.284-9.816-8.171-11.547L40.452.066v10.016L38 10.9l-2.452-.818V.066l-1.635.579c-4.887 1.73-8.171 6.37-8.171 11.547 0 4.296 2.17 7.795 6.129 9.925V27.8a21.894 21.894 0 00-4.51 1.858l-4.096-4.095-8.668 8.668 4.095 4.096a21.799 21.799 0 00-1.87 4.51h-5.79v12.258h5.79a21.865 21.865 0 001.87 4.51l-4.095 4.097 8.668 8.667 4.096-4.095a21.8 21.8 0 004.51 1.87v5.79h12.258v-5.79a21.869 21.869 0 004.51-1.87l4.096 4.095 8.668-8.667-4.095-4.097c.79-1.43 1.417-2.94 1.869-4.51h5.79V42.837h-5.79a21.797 21.797 0 00-1.87-4.51zM28.194 12.192a9.82 9.82 0 014.903-8.481v8.139L38 13.484l4.903-1.634V3.71a9.82 9.82 0 014.903 8.482c0 3.595-1.876 6.384-5.427 8.064l-.702.333v19.796h2.452v-2.042c3.774 2.165 6.129 6.16 6.129 10.623 0 4.526-2.471 8.477-6.129 10.6V42.837h-2.452V60.66a12.203 12.203 0 01-3.677.565c-1.281 0-2.515-.198-3.677-.565V20.59l-.702-.332c-3.55-1.681-5.428-4.47-5.428-8.065zm34.322 40.451H57.27l-.227.938a19.42 19.42 0 01-2.316 5.584l-.503.824 3.713 3.711-5.202 5.201-3.711-3.713-.824.504a19.436 19.436 0 01-5.584 2.316l-.939.228v5.246h-7.354v-5.246l-.938-.227a19.418 19.418 0 01-5.584-2.316l-.823-.503-3.712 3.713-5.201-5.202 3.713-3.711-.504-.824a19.433 19.433 0 01-2.316-5.583l-.228-.94h-5.246V45.29h5.246l.227-.938a19.418 19.418 0 012.316-5.584l.503-.823-3.712-3.712 5.2-5.201 3.712 3.713.824-.504a19.351 19.351 0 014.07-1.882V35.6c-5.238 2.394-8.58 7.547-8.58 13.367 0 8.111 6.598 14.71 14.709 14.71 8.11 0 14.71-6.599 14.71-14.71 0-5.821-3.343-10.974-8.581-13.367v-5.242a19.478 19.478 0 014.07 1.882l.823.504 3.712-3.713 5.201 5.2-3.713 3.713.504.823a19.433 19.433 0 012.315 5.584l.23.938h5.246v7.355zM31.871 38.345v21.222c-3.658-2.123-6.13-6.074-6.13-10.6 0-4.462 2.356-8.457 6.13-10.622z" fill="#fff"/><path d="M4.903 60.224V15.869c0-.675.55-1.226 1.226-1.226h10.032c.508 1.424 1.856 2.452 3.452 2.452a3.682 3.682 0 003.677-3.677 3.682 3.682 0 00-3.677-3.678c-1.596 0-2.944 1.029-3.452 2.452H6.129a3.682 3.682 0 00-3.677 3.677v44.355C1.028 60.73 0 62.08 0 63.676a3.682 3.682 0 003.677 3.677 3.682 3.682 0 003.678-3.677c0-1.596-1.029-2.945-2.452-3.452zm14.71-48.032c.675 0 1.226.55 1.226 1.226 0 .675-.55 1.226-1.226 1.226-.675 0-1.226-.55-1.226-1.226 0-.676.55-1.226 1.226-1.226zM3.677 64.902c-.675 0-1.225-.55-1.225-1.226 0-.676.55-1.226 1.225-1.226.676 0 1.226.55 1.226 1.226 0 .675-.55 1.226-1.226 1.226z" fill="#fff"/><path d="M9.806 17.095H7.355v2.452h2.451v-2.452zM9.806 21.998H7.355v2.452h2.451v-2.452zM9.806 26.902H7.355v2.451h2.451v-2.451zM73.548 60.224V15.869a3.682 3.682 0 00-3.677-3.677H59.839c-.508-1.423-1.856-2.452-3.452-2.452a3.682 3.682 0 00-3.677 3.678 3.682 3.682 0 003.677 3.677c1.596 0 2.944-1.028 3.452-2.451h10.032c.675 0 1.226.55 1.226 1.225v44.355c-1.423.507-2.452 1.856-2.452 3.452a3.682 3.682 0 003.678 3.677A3.682 3.682 0 0076 63.676c0-1.596-1.028-2.945-2.452-3.452zm-17.16-45.58c-.676 0-1.227-.55-1.227-1.226 0-.676.55-1.226 1.226-1.226.676 0 1.226.55 1.226 1.226 0 .675-.55 1.226-1.226 1.226zm15.935 50.258c-.676 0-1.226-.55-1.226-1.226 0-.676.55-1.226 1.226-1.226.675 0 1.225.55 1.225 1.226 0 .675-.55 1.226-1.225 1.226z" fill="#fff"/><path d="M68.645 17.095h-2.451v2.452h2.451v-2.452zM68.645 21.998h-2.451v2.452h2.451v-2.452zM68.645 26.902h-2.451v2.451h2.451v-2.451zM39.226 56.32h-2.452v2.453h2.452V56.32zM39.226 51.418h-2.452v2.451h2.452v-2.451zM39.226 46.514h-2.452v2.452h2.452v-2.452zM88.008 10.04h2.352v5.44h.48l2.096-5.44h2.352l-2.464 6.128L95.48 23h-2.384l-2.256-5.968h-.48V23h-2.352V10.04zm8.624 0h3.808c2.208 0 3.312 1.227 3.312 3.68 0 2.347-1.157 3.52-3.472 3.52h-1.296V23h-2.352V10.04zm3.264 5.536c.64 0 1.072-.133 1.296-.4.224-.277.336-.768.336-1.472 0-.512-.037-.901-.112-1.168a.99.99 0 00-.464-.624c-.224-.139-.576-.208-1.056-.208h-.912v3.872h.912zm6.891-5.536h2.528L111.907 23h-2.192l-.512-2.992h-2.256L106.419 23h-2.224l2.592-12.96zm2.16 8.464l-.88-5.44-.88 5.44h1.76zm7.751 4.672c-1.344 0-2.298-.373-2.864-1.12-.554-.757-.832-1.824-.832-3.2v-4.624c0-1.419.278-2.496.832-3.232.555-.736 1.51-1.104 2.864-1.104 1.27 0 2.171.32 2.704.96.534.64.8 1.563.8 2.768v1.088h-2.272v-1.12c0-.459-.021-.816-.064-1.072a1.035 1.035 0 00-.336-.64c-.17-.17-.442-.256-.816-.256-.384 0-.672.09-.864.272-.192.17-.32.405-.384.704-.053.288-.08.667-.08 1.136v5.616c0 .736.096 1.27.288 1.6.192.32.539.48 1.04.48.363 0 .63-.085.8-.256a1.12 1.12 0 00.336-.672c.054-.288.08-.667.08-1.136V18.2h2.272v1.04c0 1.248-.261 2.219-.784 2.912-.522.683-1.429 1.024-2.72 1.024zm5.185-13.136h2.352v5.408h2.64V10.04h2.368V23h-2.368v-5.856h-2.64V23h-2.352V10.04zm12.879 13.136c-1.344 0-2.304-.357-2.88-1.072-.576-.725-.864-1.781-.864-3.168v-4.864c0-1.376.288-2.416.864-3.12.576-.704 1.536-1.056 2.88-1.056 1.333 0 2.288.352 2.864 1.056.576.704.864 1.744.864 3.12v4.864c0 1.376-.293 2.427-.88 3.152-.576.725-1.525 1.088-2.848 1.088zm0-1.744c.523 0 .875-.165 1.056-.496.181-.33.272-.81.272-1.44v-5.968c0-.63-.091-1.104-.272-1.424-.171-.32-.523-.48-1.056-.48s-.891.165-1.072.496c-.181.32-.272.79-.272 1.408v5.968c0 .63.091 1.11.272 1.44.181.33.539.496 1.072.496zm4.744-.112h.464c.394-.213.73-.55 1.008-1.008.277-.47.517-1.19.72-2.16.202-.97.352-2.277.448-3.92l.288-4.192h5.728v11.28h1.36v4.256h-1.648L147.73 23h-6.384l-.16 2.576h-1.68V21.32zm6.416 0v-9.584h-1.632l-.144 2.864c-.075 1.61-.208 2.859-.4 3.744-.182.885-.39 1.515-.624 1.888-.235.373-.55.736-.944 1.088h3.744zm6.834-11.28h2.528L157.876 23h-2.192l-.512-2.992h-2.256L152.388 23h-2.224l2.592-12.96zm2.16 8.464l-.88-5.44-.88 5.44h1.76zm4.263-8.464h3.808c2.208 0 3.312 1.227 3.312 3.68 0 2.347-1.157 3.52-3.472 3.52h-1.296V23h-2.352V10.04zm3.264 5.536c.64 0 1.072-.133 1.296-.4.224-.277.336-.768.336-1.472 0-.512-.037-.901-.112-1.168a.994.994 0 00-.464-.624c-.224-.139-.576-.208-1.056-.208h-.912v3.872h.912zm8.662 7.6c-1.344 0-2.299-.373-2.864-1.12-.555-.757-.832-1.824-.832-3.2v-4.624c0-1.419.277-2.496.832-3.232.554-.736 1.509-1.104 2.864-1.104 1.269 0 2.17.32 2.704.96.533.64.8 1.563.8 2.768v1.088h-2.272v-1.12a6.99 6.99 0 00-.064-1.072 1.045 1.045 0 00-.336-.64c-.171-.17-.443-.256-.816-.256-.384 0-.672.09-.864.272-.192.17-.32.405-.384.704-.054.288-.08.667-.08 1.136v5.616c0 .736.096 1.27.288 1.6.192.32.538.48 1.04.48.362 0 .629-.085.8-.256a1.13 1.13 0 00.336-.672c.053-.288.08-.667.08-1.136V18.2h2.272v1.04c0 1.248-.262 2.219-.784 2.912-.523.683-1.43 1.024-2.72 1.024zm5.184-13.136h2.352v5.44h.48l2.096-5.44h2.352l-2.464 6.128L183.761 23h-2.384l-2.256-5.968h-.48V23h-2.352V10.04zm10.561 0h2.528L191.97 23h-2.192l-.512-2.992h-2.256L186.482 23h-2.224l2.592-12.96zm2.16 8.464l-.88-5.44-.88 5.44h1.76zm6.055-1.296c-.555-.277-.992-.71-1.312-1.296-.309-.597-.464-1.312-.464-2.144 0-1.27.341-2.208 1.024-2.816.693-.608 1.76-.912 3.2-.912h2.992V23h-2.352v-5.248h-1.04L195.049 23h-2.576l2.592-5.792zm3.088-1.12v-4.4h-.576c-.704 0-1.232.17-1.584.512-.341.341-.512.864-.512 1.568 0 .768.165 1.35.496 1.744.331.384.88.576 1.648.576h.528zM87.976 34.04h7.472V47h-2.336V35.72h-2.8V47h-2.336V34.04zm9.422 0h3.808c2.208 0 3.312 1.227 3.312 3.68 0 2.347-1.157 3.52-3.472 3.52H99.75V47h-2.352V34.04zm3.264 5.536c.64 0 1.072-.133 1.296-.4.224-.277.336-.768.336-1.472 0-.512-.037-.901-.112-1.168a.994.994 0 00-.464-.624c-.224-.139-.576-.208-1.056-.208h-.912v3.872h.912zm8.709 7.6c-1.344 0-2.304-.357-2.88-1.072-.576-.725-.864-1.781-.864-3.168v-4.864c0-1.376.288-2.416.864-3.12.576-.704 1.536-1.056 2.88-1.056 1.334 0 2.288.352 2.864 1.056.576.704.864 1.744.864 3.12v4.864c0 1.376-.293 2.427-.88 3.152-.576.725-1.525 1.088-2.848 1.088zm0-1.744c.523 0 .875-.165 1.056-.496.182-.33.272-.81.272-1.44v-5.968c0-.63-.09-1.104-.272-1.424-.17-.32-.522-.48-1.056-.48-.533 0-.89.165-1.072.496-.181.32-.272.79-.272 1.408v5.968c0 .63.091 1.11.272 1.44.182.33.539.496 1.072.496zm5.672-11.392h2.448l1.84 8.976 1.904-8.976h2.384l.24 12.96h-1.76l-.192-9.008-1.84 9.008h-1.424l-1.872-9.04-.176 9.04h-1.776l.224-12.96zm10.762 0h2.352v5.44h.576c1.355 0 2.357.288 3.008.864.651.576.976 1.541.976 2.896 0 1.387-.341 2.363-1.024 2.928-.683.555-1.701.832-3.056.832h-2.832V34.04zm8.128 0h2.352V47h-2.352V34.04zm-5.28 11.36c.672 0 1.152-.155 1.44-.464.288-.31.432-.87.432-1.68 0-.725-.139-1.259-.416-1.6-.277-.352-.773-.528-1.488-.528h-.464V45.4h.496zm9.652-11.36h2.272v11.264h1.936V34.04h2.272v11.264h1.856V34.04h2.272V47h-10.608V34.04zm11.697 11.264c.544.01.933-.075 1.168-.256.245-.192.432-.619.56-1.28.128-.661.251-1.797.368-3.408l.416-6.32h6.304V47h-2.352V35.816h-1.872l-.272 4.832c-.107 1.728-.251 3.013-.432 3.856-.181.832-.523 1.461-1.024 1.888-.491.416-1.253.624-2.288.624-.245 0-.437-.005-.576-.016v-1.696zM160.82 34.04h5.44v1.664h-3.088v3.728h2.432v1.648h-2.432v4.304h3.12V47h-5.472V34.04zm6.876 0h2.352v5.408h2.64V34.04h2.368V47h-2.368v-5.856h-2.64V47h-2.352V34.04zm9.375 0h2.352v5.408h2.64V34.04h2.368V47h-2.368v-5.856h-2.64V47h-2.352V34.04zm11.279 0h2.528L193.47 47h-2.192l-.512-2.992h-2.256L187.982 47h-2.224l2.592-12.96zm2.16 8.464l-.88-5.44-.88 5.44h1.76zm6.055-1.296c-.555-.277-.992-.71-1.312-1.296-.309-.597-.464-1.312-.464-2.144 0-1.27.341-2.208 1.024-2.816.693-.608 1.76-.912 3.2-.912h2.992V47h-2.352v-5.248h-1.04L196.549 47h-2.576l2.592-5.792zm3.088-1.12v-4.4h-.576c-.704 0-1.232.17-1.584.512-.341.341-.512.864-.512 1.568 0 .768.165 1.35.496 1.744.331.384.88.576 1.648.576h.528zM88.008 58.04h2.352v5.44h.48l2.096-5.44h2.352l-2.464 6.128L95.48 71h-2.384l-2.256-5.968h-.48V71h-2.352V58.04zm12.16 13.136c-1.344 0-2.304-.357-2.88-1.072-.576-.725-.864-1.781-.864-3.168v-4.864c0-1.376.288-2.416.864-3.12.576-.704 1.536-1.056 2.88-1.056 1.334 0 2.288.352 2.864 1.056.576.704.864 1.744.864 3.12v4.864c0 1.376-.293 2.427-.88 3.152-.576.725-1.525 1.088-2.848 1.088zm0-1.744c.523 0 .875-.165 1.056-.496.182-.33.272-.81.272-1.44v-5.968c0-.63-.09-1.104-.272-1.424-.17-.32-.522-.48-1.056-.48-.533 0-.89.165-1.072.496-.181.32-.272.79-.272 1.408v5.968c0 .63.09 1.11.272 1.44.182.33.539.496 1.072.496zm5.672-11.392h2.448l1.84 8.976 1.904-8.976h2.384l.24 12.96h-1.76l-.192-9.008-1.84 9.008h-1.424l-1.872-9.04-.176 9.04h-1.776l.224-12.96zm10.73 0h7.472V71h-2.336V59.72h-2.8V71h-2.336V58.04zm11.358 0h2.528L133.048 71h-2.192l-.512-2.992h-2.256L127.56 71h-2.224l2.592-12.96zm2.16 8.464l-.88-5.44-.88 5.44h1.76zm4.295-8.464h2.352v5.408h2.64V58.04h2.368V71h-2.368v-5.856h-2.64V71h-2.352V58.04zm9.375 0h1.936v8.176l3.552-8.176h1.584V71h-1.968v-8.32L145.31 71h-1.552V58.04zm10.854 7.168c-.555-.277-.992-.71-1.312-1.296-.31-.597-.464-1.312-.464-2.144 0-1.27.341-2.208 1.024-2.816.693-.608 1.76-.912 3.2-.912h2.992V71H157.7v-5.248h-1.04L154.596 71h-2.576l2.592-5.792zm3.088-1.12v-4.4h-.576c-.704 0-1.232.17-1.584.512-.342.341-.512.864-.512 1.568 0 .768.165 1.35.496 1.744.33.384.88.576 1.648.576h.528z" fill="#fff"/></symbol><symbol fill="none" viewBox="0 0 18 16" id="mail" xmlns="http://www.w3.org/2000/svg"><path d="M16.2.588H1.8C.81.588.009 1.422.009 2.44L0 13.559c0 1.02.81 1.853 1.8 1.853h14.4c.99 0 1.8-.834 1.8-1.853V2.441c0-1.02-.81-1.853-1.8-1.853zm0 12.971H1.8V4.294L9 8.926l7.2-4.632v9.265zM9 7.073L1.8 2.441h14.4L9 7.073z" fill="#006ACC"/></symbol><symbol fill="none" viewBox="0 0 148 148" id="pay" xmlns="http://www.w3.org/2000/svg"><circle cx="74.244" cy="74.308" r="73.317" fill="#0157A0"/><mask id="ia" maskUnits="userSpaceOnUse" x="0" y="0" width="148" height="148"><circle cx="74.244" cy="74.308" r="73.317" fill="#0157A0"/></mask><g mask="url(#ia)" fill="#006ACC"><path d="M66.134 115.432l-6.697-6.697a2.23 2.23 0 00-3.158 0 2.23 2.23 0 000 3.157l2.888 2.888H6.483V90.215A2.231 2.231 0 004.25 87.98a2.231 2.231 0 00-2.233 2.234v26.798c0 1.235.998 2.233 2.233 2.233h54.917l-2.888 2.888a2.231 2.231 0 001.579 3.812c.572 0 1.143-.219 1.579-.654l6.697-6.698c.208-.205.371-.453.485-.728a2.216 2.216 0 000-1.706 2.27 2.27 0 00-.485-.728zM93.6 61.183a2.231 2.231 0 002.234-2.233V32.152a2.231 2.231 0 00-2.234-2.234H52.08l2.887-2.887a2.23 2.23 0 000-3.158 2.23 2.23 0 00-3.158 0l-6.697 6.697a2.187 2.187 0 00-.485.73 2.215 2.215 0 000 1.707c.114.275.277.523.485.728l6.697 6.697a2.227 2.227 0 001.58.655c.571 0 1.143-.22 1.578-.655a2.23 2.23 0 000-3.157l-2.887-2.888h39.29v24.565a2.229 2.229 0 002.231 2.231zM93.638 88.03c-6.157 0-11.166 5.008-11.166 11.162 0 6.157 5.01 11.166 11.166 11.166 6.157 0 11.166-5.009 11.166-11.166 0-6.154-5.009-11.161-11.166-11.161zm0 17.862a6.708 6.708 0 01-6.7-6.7c0-3.691 3.007-6.695 6.7-6.695 3.694 0 6.7 3.004 6.7 6.695 0 3.694-3.006 6.7-6.7 6.7z"/><path d="M115.968 67.919a2.237 2.237 0 00-2.233-2.233l-40.184.013c-1.235 0-2.234 1-2.234 2.233v6.653c0 .01-.006.022-.006.033 0 .011.006.023.006.034v49.065c0 .012-.006.023-.006.034 0 .011.006.022.006.033v6.548c-.002.045-.024.078-.024.121V143.852a2.23 2.23 0 002.233 2.233h40.198a2.23 2.23 0 002.233-2.233v-13.346c0-.02.011-.035.011-.053v-6.684l.002-.011-.002-.012V67.919zm-40.184 2.246h1.592a4.445 4.445 0 01-1.592 1.595v-1.595zm0 56.442a4.486 4.486 0 011.603 1.608h-1.603v-1.608zm35.707 15.007H75.759v-2.233h35.732v2.233zm0-6.699H75.759v-2.234h4.462c.01 0 .016.005.023.005.006 0 .013-.005.022-.005h31.225v2.234zm.011-6.7h-1.604a4.465 4.465 0 011.604-1.606v1.606zm0-6.376a8.92 8.92 0 00-6.374 6.376h-22.97a8.914 8.914 0 00-6.374-6.38V76.532a8.91 8.91 0 006.367-6.369l22.977-.009a8.909 8.909 0 006.374 6.378v45.307zm0-50.075a4.448 4.448 0 01-1.606-1.612h1.606v1.612zM40.042 81.338v-51.37c0-.09-.043-.166-.05-.25a2.302 2.302 0 00-.089-.445c-.049-.15-.12-.284-.199-.418-.044-.073-.055-.156-.109-.227l-6.7-8.933c-.03-.043-.078-.06-.111-.1a2.222 2.222 0 00-.35-.313c-.11-.083-.213-.166-.334-.226-.125-.063-.254-.098-.39-.138a2.188 2.188 0 00-.45-.09c-.05-.004-.095-.031-.149-.031h-49.14c-.05 0-.098.027-.149.031a2.093 2.093 0 00-.453.092c-.134.04-.264.076-.382.136-.127.063-.232.147-.346.232a2.188 2.188 0 00-.34.302c-.035.04-.082.06-.116.102l-6.706 8.933c-.054.072-.067.157-.112.233a2.146 2.146 0 00-.192.41c-.049.146-.071.29-.09.443-.01.089-.053.165-.053.257v51.37c0 1.235.998 2.233 2.233 2.233h62.543a2.231 2.231 0 002.234-2.233zm-10.048-58.07l3.35 4.466H14.981l-1.115-4.466h16.129zm-26.18 0h5.45l1.114 4.466H2.7l1.115-4.466zM2.076 32.2h8.928v4.473H2.075V32.2zm-18.987-8.933H-.786L-1.9 27.734h-18.366l3.354-4.466zm52.487 55.837H-22.5V32.2h20.11v6.706c0 1.235.998 2.233 2.233 2.233h13.394a2.231 2.231 0 002.234-2.233v-6.706h20.105v46.904z"/><path d="M2.075 63.47h-17.87a2.231 2.231 0 00-2.233 2.233c0 1.235.998 2.233 2.233 2.233h17.87a2.231 2.231 0 002.233-2.233 2.231 2.231 0 00-2.233-2.233z"/></g><path d="M84.109 94.715l-3.749-3.749a1.249 1.249 0 10-1.767 1.768l1.616 1.616H50.72V80.6a1.249 1.249 0 10-2.5 0v15c0 .691.559 1.25 1.25 1.25H80.21l-1.616 1.616a1.249 1.249 0 101.767 1.768l3.749-3.749c.116-.115.208-.254.271-.407a1.24 1.24 0 000-.955 1.27 1.27 0 00-.271-.408zM99.483 64.35c.691 0 1.249-.559 1.249-1.25v-15c0-.691-.558-1.25-1.25-1.25h-23.24l1.615-1.616a1.249 1.249 0 10-1.767-1.768l-3.749 3.75a1.225 1.225 0 00-.271.408 1.24 1.24 0 000 .955c.064.154.155.292.271.407l3.749 3.75a1.247 1.247 0 001.767 0 1.249 1.249 0 000-1.768l-1.616-1.617h21.993v13.75a1.248 1.248 0 001.249 1.25zM99.504 79.378a6.256 6.256 0 00-6.25 6.247 6.257 6.257 0 006.25 6.25 6.257 6.257 0 006.25-6.25 6.256 6.256 0 00-6.25-6.247zm0 9.997a3.755 3.755 0 01-3.75-3.75 3.753 3.753 0 013.75-3.747 3.754 3.754 0 013.75 3.747 3.755 3.755 0 01-3.75 3.75z" fill="#fff"/><path d="M112.003 68.12a1.25 1.25 0 00-1.25-1.25l-22.493.008c-.691 0-1.25.56-1.25 1.25v3.724c0 .006-.004.012-.004.018 0 .006.004.013.004.019v27.464c0 .006-.004.012-.004.019 0 .006.004.012.004.018v3.665c-.001.025-.014.044-.014.068v7.5c0 .691.56 1.25 1.25 1.25h22.5c.692 0 1.25-.559 1.25-1.25V103.153c0-.012.007-.02.007-.03v-3.742l.001-.006-.001-.006V68.12zM89.51 69.378h.891c-.216.37-.52.675-.89.892v-.892zm0 31.592c.373.219.68.528.898.9h-.898v-.9zm19.986 8.4h-20v-1.25h20v1.25zm0-3.75h-20v-1.25h2.498c.005 0 .009.003.012.003.004 0 .008-.003.013-.003h17.477v1.25zm.007-3.75h-.898c.218-.372.525-.681.898-.899v.899zm0-3.569a4.993 4.993 0 00-3.568 3.569H93.078a4.99 4.99 0 00-3.568-3.571V72.941a4.987 4.987 0 003.564-3.565l12.861-.005a4.986 4.986 0 003.568 3.57v25.36zm0-28.028a2.483 2.483 0 01-.899-.903h.899v.903zM69.504 75.631V46.878c0-.05-.024-.093-.028-.14a1.285 1.285 0 00-.05-.25 1.217 1.217 0 00-.11-.233c-.026-.041-.032-.087-.062-.127l-3.75-5c-.018-.024-.044-.034-.063-.057a1.24 1.24 0 00-.196-.175c-.061-.046-.119-.092-.186-.126-.07-.035-.143-.055-.219-.077a1.232 1.232 0 00-.251-.05c-.029-.003-.054-.018-.084-.018H37c-.029 0-.055.015-.084.018-.087.006-.17.026-.253.05-.075.023-.148.043-.214.077-.071.035-.13.083-.194.13a1.219 1.219 0 00-.19.169c-.02.022-.046.034-.065.057l-3.754 5c-.03.04-.037.088-.062.13a1.207 1.207 0 00-.108.23 1.19 1.19 0 00-.05.248c-.006.05-.03.092-.03.144V75.63c0 .692.56 1.25 1.25 1.25h35.008c.691 0 1.25-.558 1.25-1.25zM63.88 43.128l1.875 2.5H55.476l-.623-2.5h9.027zm-14.654 0h3.05l.624 2.5h-4.297l.623-2.5zm-.973 5h4.997v2.503h-4.997v-2.503zm-10.628-5h9.026l-.623 2.5h-10.28l1.877-2.5zM67.004 74.38H34.496V48.128h11.257v3.753c0 .692.558 1.25 1.25 1.25H54.5c.691 0 1.25-.558 1.25-1.25v-3.753h11.254V74.38z" fill="#fff"/><path d="M48.252 65.63H38.25a1.249 1.249 0 100 2.5h10.002a1.249 1.249 0 100-2.5zM43.251 69.38H38.25a1.249 1.249 0 100 2.5h5.001a1.249 1.249 0 100-2.5z" fill="#fff"/></symbol><symbol fill="none" viewBox="0 0 16 21" id="pin" xmlns="http://www.w3.org/2000/svg"><path d="M7.771 1.059c-3.594 0-6.5 2.877-6.5 6.436 0 4.827 6.5 11.952 6.5 11.952s6.5-7.125 6.5-11.952c0-3.559-2.906-6.436-6.5-6.436zm0 8.734c-1.281 0-2.321-1.03-2.321-2.298 0-1.27 1.04-2.299 2.321-2.299 1.281 0 2.321 1.03 2.321 2.299s-1.04 2.298-2.321 2.298z" stroke="#006ACC" stroke-width="2"/></symbol><symbol fill="none" viewBox="0 0 20 22" id="tel" xmlns="http://www.w3.org/2000/svg"><path d="M8.707 6.57h0l-.003-.011c-.272-.988-.42-2.051-.42-3.162 0-.903-.646-1.96-1.801-1.96H3.681c-1.155 0-1.8 1.057-1.8 1.96 0 9.39 6.377 17.322 14.608 17.322 1.155 0 1.8-1.058 1.8-1.96v-3.351c0-.903-.645-1.96-1.8-1.96a6.76 6.76 0 01-2.485-.476c-.725-.294-1.494-.037-1.957.518l-1.185 1.421c-1.607-1.174-2.966-2.835-3.915-4.835l1.36-1.632-.767-.64.768.64c.456-.547.559-1.264.4-1.873z" stroke="#006ACC" stroke-width="2"/></symbol></svg>