<svg width="147" height="148" viewBox="0 0 147 148" fill="none" xmlns="http://www.w3.org/2000/svg">
<circle cx="73.3936" cy="73.8343" r="73.3167" fill="#0157A0"/>
<mask id="mask0" mask-type="alpha" maskUnits="userSpaceOnUse" x="0" y="0" width="147" height="148">
<circle cx="73.3936" cy="73.8343" r="73.3167" fill="#0157A0"/>
</mask>
<g mask="url(#mask0)">
<path d="M113.026 58.0795C113.012 57.7892 112.957 57.5031 112.861 57.2308C112.822 57.1271 112.776 57.0276 112.725 56.9308C112.626 56.7276 112.502 56.5369 112.357 56.3641C112.289 56.2756 112.215 56.1927 112.134 56.1153C112.09 56.0724 112.061 56.0158 112.011 55.9729L32.2867 -9.13761C31.2854 -9.95592 29.8678 -9.95592 28.8665 -9.13761L-50.8578 55.9729C-50.9074 56.0158 -50.937 56.0724 -50.9813 56.1153C-51.0605 56.1927 -51.1356 56.2756 -51.2041 56.3641C-51.3477 56.5369 -51.4725 56.7276 -51.5719 56.9308C-51.6229 57.0276 -51.6685 57.1271 -51.7075 57.2308C-51.8041 57.5031 -51.8591 57.7892 -51.8712 58.0795C-51.8712 58.1224 -51.8967 58.1583 -51.8967 58.2039V160.116C-51.8967 161.679 -50.6658 162.947 -49.1476 162.947H-38.1512C-36.633 162.947 -35.4021 161.679 -35.4021 160.116V72.3584H96.5553V160.116C96.5553 161.679 97.7862 162.947 99.3044 162.947H110.301C111.819 162.947 113.05 161.679 113.05 160.116V58.2039C113.05 58.1583 113.028 58.1224 113.026 58.0795ZM30.5766 -3.29475L102.411 55.373H-41.2573L30.5766 -3.29475ZM-40.9003 157.285H-46.3985V61.0348H-40.9003V157.285ZM-35.4021 66.6966V61.0348H96.5553V66.6966H-35.4021ZM107.552 157.285H102.053V61.0348H107.552V157.285Z" fill="#006ACC"/>
<path d="M30.5765 32.7255C36.6493 32.7255 41.573 27.6568 41.573 21.4021C41.573 15.1488 36.6493 10.0787 30.5765 10.0787C24.5038 10.0787 19.5801 15.1488 19.5801 21.4021C19.5801 27.6568 24.5038 32.7255 30.5765 32.7255ZM30.5765 15.7404C33.6129 15.7404 36.0748 18.2754 36.0748 21.4021C36.0748 24.5288 33.6129 27.0638 30.5765 27.0638C27.5402 27.0638 25.0783 24.5288 25.0783 21.4021C25.0783 18.2754 27.5402 15.7404 30.5765 15.7404Z" fill="#006ACC"/>
<path d="M16.8311 35.5564H44.3222V41.2184H16.8311V35.5564Z" fill="#006ACC"/>
<path d="M16.8311 44.0491H44.3222V49.7109H16.8311V44.0491Z" fill="#006ACC"/>
<path d="M90.6638 93.5469L82.4164 79.3925C81.9198 78.541 81.0258 78.0199 80.0606 78.0199H-16.1583C-16.9932 78.0199 -17.7838 78.4111 -18.3047 79.0815L-29.3011 93.2359L-29.2689 93.2649C-29.6689 93.7529 -29.8931 94.3666 -29.9038 95.0052V145.961C-29.9038 147.525 -28.6729 148.792 -27.1547 148.792H-5.16181V160.116C-5.16181 161.679 -3.93089 162.947 -2.4127 162.947H63.566C65.0842 162.947 66.3151 161.679 66.3151 160.116V148.792H88.308C89.8261 148.792 91.0571 147.525 91.0571 145.961V95.0052C91.045 94.4965 90.896 94.0003 90.6262 93.5732L90.6638 93.5469ZM83.4527 92.1743H33.3257V83.6817H78.5049L83.4527 92.1743ZM27.8275 111.991H33.3257V123.314H27.8275V111.991ZM3.30567 106.329L9.90326 97.8361H53.7629L58.7107 106.329H3.30567ZM-14.8387 83.6817H27.8275V92.1743H-21.4363L-14.8387 83.6817ZM-24.4056 143.13V97.8361H2.86538L-4.55642 107.39L-4.5242 107.419C-4.92422 107.906 -5.14973 108.521 -5.16181 109.16V143.13H-24.4056ZM60.8168 157.285H0.336412V111.991H22.3293V126.145C22.3293 127.708 23.5602 128.976 25.0784 128.976H36.0749C37.593 128.976 38.824 127.708 38.824 126.145V111.991H60.8168V157.285ZM85.5589 143.13H66.3151V109.16C66.303 108.651 66.154 108.155 65.8842 107.728L65.9218 107.701L60.1739 97.8361H85.5589V143.13Z" fill="#006ACC"/>
</g>
<g clip-path="url(#clip0)">
<path d="M107.81 66.4354C107.804 66.3194 107.781 66.2051 107.741 66.0963C107.724 66.0549 107.705 66.0151 107.684 65.9764C107.643 65.8952 107.591 65.819 107.531 65.75C107.502 65.7147 107.471 65.6815 107.438 65.6506C107.419 65.6335 107.407 65.6108 107.386 65.5937L74.1101 39.5794C73.6921 39.2525 73.1005 39.2525 72.6825 39.5794L39.4066 65.5937C39.3858 65.6108 39.3735 65.6335 39.355 65.6506C39.322 65.6815 39.2906 65.7147 39.262 65.75C39.2021 65.819 39.1499 65.8952 39.1085 65.9764C39.0872 66.0151 39.0681 66.0549 39.0519 66.0963C39.0116 66.2051 38.9886 66.3194 38.9835 66.4354C38.9835 66.4525 38.9729 66.4668 38.9729 66.4851V107.203C38.9729 107.828 39.4867 108.334 40.1203 108.334H44.7101C45.3438 108.334 45.8576 107.828 45.8576 107.203V72.1404H100.935V107.203C100.935 107.828 101.449 108.334 102.083 108.334H106.672C107.306 108.334 107.82 107.828 107.82 107.203V66.4851C107.82 66.4668 107.811 66.4525 107.81 66.4354ZM73.3963 41.9139L103.379 65.354H43.4137L73.3963 41.9139ZM43.5627 106.072H41.2678V67.6161H43.5627V106.072ZM45.8576 69.8782V67.6161H100.935V69.8782H45.8576ZM105.525 106.072H103.23V67.6161H105.525V106.072Z" fill="white"/>
<path d="M73.3964 56.3056C75.9311 56.3056 77.9862 54.2805 77.9862 51.7814C77.9862 49.2829 75.9311 47.2572 73.3964 47.2572C70.8617 47.2572 68.8066 49.2829 68.8066 51.7814C68.8066 54.2805 70.8617 56.3056 73.3964 56.3056ZM73.3964 49.5193C74.6638 49.5193 75.6913 50.5322 75.6913 51.7814C75.6913 53.0307 74.6638 54.0435 73.3964 54.0435C72.1291 54.0435 71.1015 53.0307 71.1015 51.7814C71.1015 50.5322 72.1291 49.5193 73.3964 49.5193Z" fill="white"/>
<path d="M67.6592 57.4366H79.1337V59.6988H67.6592V57.4366Z" fill="white"/>
<path d="M67.6592 60.8297H79.1337V63.0918H67.6592V60.8297Z" fill="white"/>
<path d="M98.4761 80.6062L95.0338 74.9509C94.8265 74.6107 94.4533 74.4025 94.0505 74.4025H53.8898C53.5413 74.4025 53.2113 74.5588 52.9939 74.8266L48.4042 80.4819L48.4176 80.4935C48.2506 80.6884 48.1571 80.9336 48.1526 81.1888V101.548C48.1526 102.172 48.6664 102.679 49.3 102.679H58.4796V107.203C58.4796 107.828 58.9934 108.334 59.6271 108.334H87.1658C87.7995 108.334 88.3132 107.828 88.3132 107.203V102.679H97.4928C98.1265 102.679 98.6403 102.172 98.6403 101.548V81.1888C98.6352 80.9856 98.573 80.7873 98.4604 80.6166L98.4761 80.6062ZM95.4663 80.0577H74.5439V76.6646H93.4011L95.4663 80.0577ZM72.249 87.9751H74.5439V92.4994H72.249V87.9751ZM62.0138 85.713L64.7676 82.3199H83.0741L85.1393 85.713H62.0138ZM54.4406 76.6646H72.249V80.0577H51.6868L54.4406 76.6646ZM50.4475 100.417V82.3199H61.8301L58.7323 86.1372L58.7457 86.1488C58.5788 86.3432 58.4847 86.5889 58.4796 86.8441V100.417H50.4475ZM86.0183 106.072H60.7745V87.9751H69.9541V93.6304C69.9541 94.255 70.4679 94.7615 71.1015 94.7615H75.6913C76.325 94.7615 76.8388 94.255 76.8388 93.6304V87.9751H86.0183V106.072ZM96.3454 100.417H88.3132V86.8441C88.3082 86.6408 88.246 86.4426 88.1334 86.2719L88.1491 86.2614L85.75 82.3199H96.3454V100.417Z" fill="white"/>
</g>
<defs>
<clipPath id="clip0">
<rect width="70" height="69" fill="white" transform="translate(38.3936 39.3342)"/>
</clipPath>
</defs>
</svg>
