<svg width="148" height="148" viewBox="0 0 148 148" fill="none" xmlns="http://www.w3.org/2000/svg">
<circle cx="74.271" cy="73.7546" r="73.3167" fill="#0157A0"/>
<mask id="mask0" mask-type="alpha" maskUnits="userSpaceOnUse" x="0" y="0" width="148" height="148">
<circle cx="74.271" cy="73.7546" r="73.3167" fill="#0157A0"/>
</mask>
<g mask="url(#mask0)">
<path d="M-16.0536 104.346L24.3191 125.913C24.74 126.138 25.2098 126.251 25.6796 126.251C26.1494 126.251 26.6192 126.138 27.0401 125.913L67.4128 104.346C68.2545 103.896 68.7733 103.065 68.7733 102.166V59.0308C68.7733 58.1312 68.2545 57.3004 67.4128 56.8506L27.0401 35.2832C26.1984 34.8333 25.1608 34.8333 24.3191 35.2832L-16.0536 56.8506C-16.8953 57.3004 -17.4141 58.1312 -17.4141 59.0308V102.166C-17.4141 103.065 -16.8953 103.896 -16.0536 104.346ZM-11.9722 63.3913L22.9587 82.0518V119.373L-11.9722 100.712V63.3913ZM25.6796 77.6913L-9.25128 59.0308L5.49324 51.1541L40.4241 69.8146L25.6796 77.6913ZM28.4005 119.373V82.0518L63.3314 63.3913V100.712L28.4005 119.373ZM25.6796 40.3704L60.6105 59.0308L45.866 66.9076L10.9351 48.2471L25.6796 40.3704Z" fill="#006ACC"/>
<path d="M56.5292 82.5428C55.6876 82.093 54.65 82.093 53.8083 82.5428L35.203 92.4818C34.3613 92.9316 33.8425 93.7624 33.8425 94.6621V106.29C33.8425 107.19 34.3613 108.021 35.203 108.47C35.6238 108.695 36.0936 108.808 36.5635 108.808C37.0333 108.808 37.5031 108.695 37.9239 108.47L56.5292 98.5314C57.3709 98.0816 57.8897 97.2508 57.8897 96.3512V84.723C57.8897 83.8237 57.3709 82.9926 56.5292 82.5428ZM52.4479 94.898L39.2844 101.93V96.1155L52.4479 89.0835V94.898Z" fill="#006ACC"/>
<path d="M97.7792 98.8342V62.362C104.208 59.5286 108.663 53.4588 108.663 46.4428C108.663 36.7252 100.119 28.8196 89.6164 28.8196C85.6032 28.8196 81.8781 29.9771 78.8042 31.9458L44.6591 13.7054C44.6997 13.2371 44.7262 12.7655 44.7262 12.2878C44.7262 2.56988 36.1821 -5.33569 25.6797 -5.33569C15.1773 -5.33569 6.63323 2.56988 6.63323 12.2875C6.63323 12.7651 6.65971 13.2371 6.70034 13.705L-27.4447 31.9455C-30.5187 29.9767 -34.2438 28.8193 -38.257 28.8193C-48.7594 28.8193 -57.3035 36.7249 -57.3035 46.4424C-57.3035 53.4585 -52.8488 59.5282 -46.4198 62.3617V98.8339C-52.8488 101.667 -57.3035 107.737 -57.3035 114.753C-57.3035 124.471 -48.7594 132.376 -38.257 132.376C-34.2438 132.376 -30.5187 131.219 -27.4447 129.25L6.70034 147.491C6.65971 147.959 6.63323 148.43 6.63323 148.908C6.63323 158.626 15.1773 166.531 25.6797 166.531C36.1821 166.531 44.7262 158.626 44.7262 148.908C44.7262 148.43 44.6997 147.958 44.6591 147.491L78.8042 129.25C81.8781 131.219 85.6032 132.376 89.6164 132.376C100.119 132.376 108.663 124.471 108.663 114.753C108.663 107.737 104.208 101.668 97.7792 98.8342ZM92.3373 97.3129C91.4481 97.1948 90.5404 97.1303 89.6164 97.1303C88.6924 97.1303 87.7847 97.1948 86.8955 97.3129V63.8833C87.7847 64.0015 88.6924 64.0659 89.6164 64.0659C90.5404 64.0659 91.4481 64.0015 92.3373 63.8833V97.3129ZM103.221 46.4428C103.221 53.384 97.1182 59.0307 89.6164 59.0307C82.1146 59.0307 76.0118 53.384 76.0118 46.4428C76.0118 39.5016 82.1146 33.8548 89.6164 33.8548C97.1182 33.8548 103.221 39.5016 103.221 46.4428ZM74.6629 35.5473C73.5415 36.8622 72.6186 38.3267 71.9347 39.9041L40.6332 23.1826C41.7546 21.8677 42.6775 20.4032 43.3614 18.8258L74.6629 35.5473ZM25.6797 -0.300509C33.1815 -0.300509 39.2843 5.34628 39.2843 12.2875C39.2843 19.2286 33.1815 24.8754 25.6797 24.8754C18.1779 24.8754 12.0751 19.2286 12.0751 12.2875C12.0751 5.34628 18.1779 -0.300509 25.6797 -0.300509ZM10.7273 23.1843L-20.5746 39.9061C-21.2584 38.3277 -22.1817 36.8625 -23.3035 35.5473L7.99804 18.8258C8.68227 20.4042 9.60557 21.8694 10.7273 23.1843ZM-51.8616 46.4428C-51.8616 39.5016 -45.7588 33.8548 -38.257 33.8548C-30.7552 33.8548 -24.6523 39.5016 -24.6523 46.4428C-24.6523 53.384 -30.7552 59.0307 -38.257 59.0307C-45.7588 59.0307 -51.8616 53.384 -51.8616 46.4428ZM-40.9779 63.8833C-40.0887 64.0015 -39.181 64.0659 -38.257 64.0659C-37.333 64.0659 -36.4253 64.0015 -35.5361 63.8833V86.6038C-35.5361 87.9942 -34.3178 89.1214 -32.8151 89.1214C-31.3124 89.1214 -30.0942 87.9942 -30.0942 86.6038V62.362C-23.6652 59.5286 -19.2105 53.4588 -19.2105 46.4428C-19.2105 45.9658 -19.237 45.4948 -19.2772 45.0276L14.8697 26.7858C17.9428 28.7538 21.6673 29.9106 25.6797 29.9106C29.6929 29.9106 33.418 28.7532 36.492 26.7844L70.637 45.0249C70.5964 45.4932 70.5699 45.9648 70.5699 46.4424C70.5699 53.4585 75.0246 59.5282 81.4536 62.3617V98.8339C75.0246 101.667 70.5699 107.737 70.5699 114.753C70.5699 115.231 70.5964 115.702 70.637 116.171L36.4916 134.411C33.418 132.443 29.6929 131.286 25.6797 131.286C21.6665 131.286 17.9414 132.443 14.8675 134.412L-19.2776 116.171C-19.237 115.703 -19.2105 115.231 -19.2105 114.754C-19.2105 107.738 -23.6652 101.668 -30.0942 98.8345V85.6333C-30.0942 84.2429 -31.3124 83.1157 -32.8151 83.1157C-34.3178 83.1157 -35.5361 84.2429 -35.5361 85.6333V97.3129C-36.4253 97.1948 -37.333 97.1303 -38.257 97.1303C-39.181 97.1303 -40.0887 97.1948 -40.9779 97.3129V63.8833ZM-51.8616 114.753C-51.8616 107.812 -45.7588 102.165 -38.257 102.165C-30.7552 102.165 -24.6523 107.812 -24.6523 114.753C-24.6523 121.695 -30.7552 127.341 -38.257 127.341C-45.7588 127.341 -51.8616 121.695 -51.8616 114.753ZM-23.3035 125.649C-22.1821 124.334 -21.2592 122.87 -20.5753 121.292L10.7262 138.014C9.60485 139.329 8.6819 140.793 7.99804 142.37L-23.3035 125.649ZM25.6797 161.497C18.1779 161.497 12.0751 155.85 12.0751 148.909C12.0751 141.968 18.1779 136.321 25.6797 136.321C33.1815 136.321 39.2843 141.968 39.2843 148.909C39.2843 155.85 33.1815 161.497 25.6797 161.497ZM40.6332 138.013L71.9347 121.292C72.6186 122.869 73.5415 124.334 74.6629 125.649L43.3614 142.37C42.6775 140.793 41.7546 139.328 40.6332 138.013ZM89.6164 127.341C82.1146 127.341 76.0118 121.695 76.0118 114.753C76.0118 107.812 82.1146 102.165 89.6164 102.165C97.1182 102.165 103.221 107.812 103.221 114.753C103.221 121.695 97.1182 127.341 89.6164 127.341Z" fill="#006ACC"/>
</g>
<g clip-path="url(#clip0)">
<path d="M55.9641 84.815L73.5696 95.105C73.7531 95.2123 73.958 95.266 74.1628 95.266C74.3677 95.266 74.5726 95.2123 74.7561 95.105L92.3616 84.815C92.7286 84.6004 92.9548 84.204 92.9548 83.7748V63.1947C92.9548 62.7655 92.7286 62.3691 92.3616 62.1545L74.7561 51.8644C74.3891 51.6498 73.9366 51.6498 73.5696 51.8644L55.9641 62.1545C55.5971 62.3691 55.3708 62.7655 55.3708 63.1947V83.7748C55.3708 84.204 55.5971 84.6004 55.9641 84.815ZM57.7439 65.2751L72.9763 74.1782V91.9844L57.7439 83.0813V65.2751ZM74.1628 72.0978L58.9304 63.1947L65.3601 59.4366L80.5925 68.3397L74.1628 72.0978ZM75.3494 91.9844V74.1782L90.5818 65.2751V83.0813L75.3494 91.9844ZM74.1628 54.2916L89.3953 63.1947L82.9656 66.9528L67.7332 58.0497L74.1628 54.2916Z" fill="white"/>
<path d="M87.6155 74.4125C87.2485 74.1979 86.796 74.1979 86.429 74.4125L78.3157 79.1546C77.9486 79.3692 77.7224 79.7656 77.7224 80.1948V85.7428C77.7224 86.172 77.9486 86.5684 78.3157 86.783C78.4992 86.8903 78.7041 86.944 78.9089 86.944C79.1138 86.944 79.3187 86.8903 79.5022 86.783L87.6155 82.0409C87.9825 81.8263 88.2087 81.4299 88.2087 81.0007V75.4528C88.2087 75.0237 87.9825 74.6272 87.6155 74.4125ZM85.8357 80.3074L80.0955 83.6624V80.8883L85.8357 77.5332V80.3074Z" fill="white"/>
<path d="M105.603 82.1854V64.7841C108.407 63.4322 110.35 60.5363 110.35 57.1888C110.35 52.5525 106.624 48.7806 102.044 48.7806C100.294 48.7806 98.6694 49.3329 97.329 50.2722L82.4392 41.5694C82.4569 41.346 82.4685 41.121 82.4685 40.8931C82.4685 36.2566 78.7426 32.4847 74.1628 32.4847C69.583 32.4847 65.8572 36.2566 65.8572 40.8929C65.8572 41.1208 65.8687 41.346 65.8864 41.5693L50.9967 50.272C49.6562 49.3327 48.0318 48.7805 46.2817 48.7805C41.7019 48.7805 37.9761 52.5523 37.9761 57.1887C37.9761 60.5361 39.9187 63.4321 42.7222 64.7839V82.1852C39.9187 83.5371 37.9761 86.4331 37.9761 89.7805C37.9761 94.4168 41.7019 98.1887 46.2817 98.1887C48.0318 98.1887 49.6562 97.6365 50.9967 96.6972L65.8864 105.4C65.8687 105.623 65.8572 105.848 65.8572 106.076C65.8572 110.713 69.583 114.484 74.1628 114.484C78.7426 114.484 82.4685 110.713 82.4685 106.076C82.4685 105.848 82.4569 105.623 82.4392 105.4L97.329 96.6972C98.6694 97.6365 100.294 98.1887 102.044 98.1887C106.624 98.1887 110.35 94.4168 110.35 89.7805C110.35 86.4332 108.407 83.5373 105.603 82.1854ZM103.23 81.4596C102.843 81.4032 102.447 81.3724 102.044 81.3724C101.641 81.3724 101.245 81.4032 100.857 81.4596V65.5099C101.245 65.5663 101.641 65.597 102.044 65.597C102.447 65.597 102.843 65.5663 103.23 65.5099V81.4596ZM107.977 57.1888C107.977 60.5006 105.315 63.1947 102.044 63.1947C98.7726 63.1947 96.1113 60.5006 96.1113 57.1888C96.1113 53.8771 98.7726 51.183 102.044 51.183C105.315 51.183 107.977 53.8771 107.977 57.1888ZM95.5231 51.9905C95.0341 52.6178 94.6316 53.3166 94.3334 54.0692L80.6836 46.0911C81.1726 45.4638 81.5751 44.765 81.8733 44.0125L95.5231 51.9905ZM74.1628 34.8871C77.4341 34.8871 80.0954 37.5812 80.0954 40.8929C80.0954 44.2047 77.4341 46.8988 74.1628 46.8988C70.8915 46.8988 68.2302 44.2047 68.2302 40.8929C68.2302 37.5812 70.8915 34.8871 74.1628 34.8871ZM67.6425 46.0919L53.9926 54.0701C53.6943 53.3171 53.2917 52.618 52.8026 51.9905L66.4523 44.0125C66.7507 44.7655 67.1533 45.4646 67.6425 46.0919ZM40.3491 57.1888C40.3491 53.8771 43.0104 51.183 46.2817 51.183C49.5531 51.183 52.2144 53.8771 52.2144 57.1888C52.2144 60.5006 49.5531 63.1947 46.2817 63.1947C43.0104 63.1947 40.3491 60.5006 40.3491 57.1888ZM45.0952 65.5099C45.483 65.5663 45.8788 65.597 46.2817 65.597C46.6847 65.597 47.0805 65.5663 47.4683 65.5099V76.3501C47.4683 77.0135 47.9995 77.5513 48.6548 77.5513C49.3101 77.5513 49.8413 77.0135 49.8413 76.3501V64.7841C52.6448 63.4322 54.5874 60.5363 54.5874 57.1888C54.5874 56.9613 54.5759 56.7366 54.5583 56.5136L69.4488 47.8103C70.789 48.7492 72.4131 49.3011 74.1628 49.3011C75.9129 49.3011 77.5373 48.7489 78.8778 47.8096L93.7675 56.5123C93.7498 56.7358 93.7382 56.9608 93.7382 57.1887C93.7382 60.5361 95.6808 63.4321 98.4843 64.7839V82.1852C95.6808 83.5371 93.7382 86.4331 93.7382 89.7805C93.7382 90.0084 93.7498 90.2334 93.7675 90.4568L78.8776 99.1596C77.5373 98.2206 75.9129 97.6683 74.1628 97.6683C72.4128 97.6683 70.7884 98.2206 69.4479 99.1599L54.5581 90.4571C54.5759 90.2337 54.5874 90.0087 54.5874 89.7808C54.5874 86.4334 52.6448 83.5374 49.8413 82.1856V75.8871C49.8413 75.2237 49.3101 74.6859 48.6548 74.6859C47.9995 74.6859 47.4683 75.2237 47.4683 75.8871V81.4596C47.0805 81.4032 46.6847 81.3724 46.2817 81.3724C45.8788 81.3724 45.483 81.4032 45.0952 81.4596V65.5099ZM40.3491 89.7806C40.3491 86.4689 43.0104 83.7748 46.2817 83.7748C49.5531 83.7748 52.2144 86.4689 52.2144 89.7806C52.2144 93.0924 49.5531 95.7865 46.2817 95.7865C43.0104 95.7865 40.3491 93.0924 40.3491 89.7806ZM52.8026 94.979C53.2916 94.3517 53.694 93.6529 53.9922 92.9003L67.642 100.878C67.153 101.506 66.7505 102.204 66.4523 102.957L52.8026 94.979ZM74.1628 112.082C70.8915 112.082 68.2302 109.388 68.2302 106.077C68.2302 102.765 70.8915 100.071 74.1628 100.071C77.4341 100.071 80.0954 102.765 80.0954 106.077C80.0954 109.388 77.4341 112.082 74.1628 112.082ZM80.6836 100.878L94.3334 92.9002C94.6316 93.6527 95.0341 94.3517 95.5231 94.9788L81.8733 102.957C81.5751 102.204 81.1726 101.506 80.6836 100.878ZM102.044 95.7865C98.7726 95.7865 96.1113 93.0924 96.1113 89.7806C96.1113 86.4689 98.7726 83.7748 102.044 83.7748C105.315 83.7748 107.977 86.4689 107.977 89.7806C107.977 93.0924 105.315 95.7865 102.044 95.7865Z" fill="white"/>
</g>
<defs>
<clipPath id="clip0">
<rect width="81" height="82" fill="white" transform="translate(33.6628 32.4847)"/>
</clipPath>
</defs>
</svg>
