<svg width="148" height="148" viewBox="0 0 148 148" fill="none" xmlns="http://www.w3.org/2000/svg">
<circle cx="74.271" cy="74.3075" r="73.3167" fill="#0157A0"/>
<mask id="mask0" mask-type="alpha" maskUnits="userSpaceOnUse" x="0" y="0" width="148" height="148">
<circle cx="74.271" cy="74.3075" r="73.3167" fill="#0157A0"/>
</mask>
<g mask="url(#mask0)">
<path d="M115.4 126.32C113.333 114.233 104.632 104.314 92.6944 100.438L66.1946 91.8336V87.9965H60.0348V93.6247L55.4364 111.539L42.9966 96.9969H33.9508L21.511 111.539L16.9157 93.6247V87.9965H10.7558V91.8336L-15.7439 100.438C-27.6787 104.314 -36.3795 114.233 -38.4492 126.32L-45.2405 166H122.188L115.4 126.32ZM23.4852 160H-10.4803L-7.73919 133.298L-13.8683 132.701L-16.671 160.003H-37.9657L-32.3725 127.31C-30.6816 117.419 -23.5608 109.306 -13.7943 106.132L11.6552 97.8669L18.4803 124.457L25.4256 116.339L29.0999 121.709L23.4852 160ZM47.2438 160H29.7067L35.5308 120.287L29.5373 111.53L36.8367 102.997H40.1107L47.4101 111.53L41.4166 120.287L47.2438 160ZM93.6215 160L90.8187 132.698L84.6897 133.295L87.4308 159.997H53.4653L47.8506 121.706L51.5249 116.336L58.4702 124.454L65.2953 97.8639L90.7448 106.129C100.511 109.3 107.629 117.416 109.323 127.307L114.916 160H93.6215Z" fill="#006ACC"/>
<path d="M-0.202719 60.8278C1.36805 66.093 4.26935 70.9202 8.3595 74.9043L20.3712 86.6047C23.2787 89.4369 27.144 90.9969 31.2588 90.9969H45.6945C49.8062 90.9969 53.6746 89.4369 56.5821 86.6047L68.5938 74.9043C72.6839 70.9202 75.5853 66.09 77.156 60.8278C84.8281 59.9818 90.834 53.6935 90.834 45.9952C90.834 41.0721 88.3516 36.7309 84.5787 33.9948H84.6741V15.9941C84.6741 8.48485 78.9762 2.24462 71.5721 1.16158C66.9368 -11.4029 54.5339 -20.0072 40.6927 -20.0072H38.4751C13.001 -20.0072 -7.72392 0.180546 -7.72392 24.9945V33.9948H-7.62844C-11.4014 36.7309 -13.8838 41.0721 -13.8838 45.9952C-13.8838 53.6935 -7.87792 59.9818 -0.202719 60.8278ZM72.3544 51.5665C72.3544 58.7817 69.4716 65.562 64.2357 70.6622L52.2239 82.3626C50.5053 84.0367 48.1245 84.9967 45.6914 84.9967H31.2557C28.8226 84.9967 26.4449 84.0367 24.7232 82.3626L12.7115 70.6622C7.47556 65.562 4.59274 58.7817 4.59274 51.5695V36.9949H16.6938C30.2486 36.9949 43.0642 32.3057 53.191 23.7164L54.1335 25.2465C58.0635 31.6277 64.864 35.8699 72.3544 36.7939V51.5665ZM84.6741 45.9952C84.6741 49.9524 82.0192 53.2855 78.3695 54.4856C78.4557 53.5225 78.5143 52.5505 78.5143 51.5695V37.5469C82.0901 38.789 84.6741 42.0891 84.6741 45.9952ZM-1.56405 24.9945C-1.56405 3.48967 16.3981 -14.007 38.4751 -14.007H40.6927C52.5258 -14.007 63.0622 -6.26669 66.3146 4.81872L66.9522 6.9938H69.2745C74.3687 6.9938 78.5143 11.0319 78.5143 15.9941V31.2977C77.5194 31.0997 76.4877 30.9947 75.4343 30.9947C68.911 30.9947 62.7727 27.6106 59.4156 22.1594L54.4846 14.1551L51.6942 16.8732C42.3466 25.9785 29.9191 30.9947 16.6969 30.9947H1.51589C0.462548 30.9947 -0.56923 31.0997 -1.56405 31.2977V24.9945ZM-1.56405 37.5469V51.5695C-1.56405 52.5505 -1.50553 53.5225 -1.41929 54.4886C-5.06901 53.2855 -7.72392 49.9524 -7.72392 45.9952C-7.72392 42.0891 -5.13985 38.789 -1.56405 37.5469Z" fill="#006ACC"/>
</g>
<g clip-path="url(#clip0)">
<path d="M108.896 93.6134C108.052 88.6096 104.497 84.5038 99.6212 82.8992L88.7968 79.3373V77.7489H86.2807V80.0788L84.4024 87.4944L79.3211 81.4747H75.6262L70.5448 87.4944L68.6678 80.0788V77.7489H66.1517V79.3373L55.3273 82.8992C50.4523 84.5038 46.8983 88.6096 46.0528 93.6134L43.2788 110.039H111.668L108.896 93.6134ZM71.3513 107.555H57.4773L58.597 96.5021L56.0935 96.255L54.9486 107.557H46.2504L48.535 94.0232C49.2257 89.9286 52.1343 86.5704 56.1236 85.2564L66.519 81.8349L69.3069 92.8421L72.1438 89.4815L73.6447 91.7045L71.3513 107.555ZM81.056 107.555H73.8926L76.2716 91.1159L73.8234 87.4906L76.805 83.9586H78.1423L81.1239 87.4906L78.6757 91.1159L81.056 107.555ZM99.9999 107.555L98.8551 96.2537L96.3515 96.5009L97.4712 107.554H83.5973L81.3038 91.7033L82.8047 89.4802L85.6416 92.8409L88.4295 81.8336L98.8249 85.2552C102.814 86.5679 105.722 89.9273 106.414 94.022L108.698 107.555H99.9999Z" fill="white"/>
<path d="M61.6755 66.5019C62.3171 68.6815 63.5022 70.6798 65.1729 72.3291L70.0794 77.1726C71.267 78.345 72.8458 78.9908 74.5266 78.9908H80.4232C82.1027 78.9908 83.6828 78.345 84.8704 77.1726L89.7769 72.3291C91.4476 70.6798 92.6327 68.6802 93.2743 66.5019C96.4081 66.1517 98.8614 63.5486 98.8614 60.3618C98.8614 58.3237 97.8474 56.5267 96.3062 55.394H96.3452V47.9424C96.3452 44.8338 94.0178 42.2506 90.9934 41.8023C89.1 36.6011 84.0338 33.0392 78.3801 33.0392H77.4743C67.0688 33.0392 58.6033 41.3962 58.6033 51.6682V55.394H58.6423C57.1012 56.5267 56.0872 58.3237 56.0872 60.3618C56.0872 63.5486 58.5404 66.1517 61.6755 66.5019ZM91.313 62.668C91.313 65.6549 90.1354 68.4617 87.9967 70.573L83.0903 75.4165C82.3883 76.1095 81.4158 76.5069 80.4219 76.5069H74.5254C73.5315 76.5069 72.5603 76.1095 71.857 75.4165L66.9505 70.573C64.8118 68.4617 63.6343 65.6549 63.6343 62.6693V56.636H68.5772C74.114 56.636 79.3488 54.6948 83.4853 51.1392L83.8703 51.7725C85.4755 54.4141 88.2534 56.1702 91.313 56.5527V62.668ZM96.3452 60.3618C96.3452 61.9999 95.2608 63.3797 93.77 63.8764C93.8052 63.4778 93.8291 63.0754 93.8291 62.6693V56.8645C95.2897 57.3786 96.3452 58.7448 96.3452 60.3618ZM61.1194 51.6682C61.1194 42.766 68.4564 35.5231 77.4743 35.5231H78.3801C83.2135 35.5231 87.5174 38.7272 88.8459 43.3162L89.1063 44.2166H90.0549C92.1357 44.2166 93.8291 45.8882 93.8291 47.9424V54.2775C93.4227 54.1956 93.0013 54.1521 92.571 54.1521C89.9064 54.1521 87.3991 52.7512 86.0278 50.4946L84.0137 47.1811L82.8739 48.3063C79.0556 52.0756 73.9794 54.1521 68.5785 54.1521H62.3775C61.9472 54.1521 61.5258 54.1956 61.1194 54.2775V51.6682ZM61.1194 56.8645V62.6693C61.1194 63.0754 61.1433 63.4778 61.1785 63.8777C59.6877 63.3797 58.6033 61.9999 58.6033 60.3618C58.6033 58.7448 59.6588 57.3786 61.1194 56.8645Z" fill="white"/>
</g>
<defs>
<clipPath id="clip0">
<rect width="78" height="77" fill="white" transform="translate(38.4736 33.0392)"/>
</clipPath>
</defs>
</svg>
