<svg width="204" height="76" viewBox="0 0 204 76" fill="none" xmlns="http://www.w3.org/2000/svg">
<path d="M57.3064 38.3273L61.4018 34.2307L52.7342 25.563L48.6375 29.6584C47.2082 28.869 45.6956 28.2524 44.1278 27.8001V22.1173C48.0871 19.9868 50.2568 16.4884 50.2568 12.1919C50.2568 7.01532 46.9729 2.37564 42.0856 0.644804L40.4516 0.0662231V10.0823L38 10.8999L35.5484 10.0823V0.0662231L33.9131 0.644804C29.0258 2.37564 25.7419 7.01532 25.7419 12.1919C25.7419 16.4884 27.9116 19.9868 31.8709 22.1173V27.8001C30.3031 28.2536 28.7905 28.869 27.3612 29.6584L23.2646 25.563L14.5969 34.2307L18.6923 38.3273C17.9016 39.7578 17.2753 41.268 16.8229 42.8371H11.0322V55.0951H16.8229C17.2765 56.6642 17.9016 58.1744 18.6923 59.6049L14.5969 63.7015L23.2646 72.3692L27.3612 68.2738C28.7917 69.0644 30.3019 69.6908 31.8709 70.1431V75.9338H44.129V70.1431C45.698 69.6896 47.2082 69.0644 48.6388 68.2738L52.7354 72.3692L61.4031 63.7015L57.3077 59.6049C58.0983 58.1744 58.7247 56.6642 59.177 55.0951H64.9677V42.8371H59.177C58.7235 41.268 58.0983 39.7578 57.3064 38.3273ZM28.1935 12.1919C28.1935 8.66035 30.107 5.44016 33.0967 3.71055V11.8499L38 13.4839L42.9032 11.8499V3.71055C45.8929 5.44016 47.8064 8.66035 47.8064 12.1919C47.8064 15.7872 45.9297 18.5759 42.3786 20.2565L41.6774 20.5887V40.3854H44.129V38.3433C47.9033 40.508 50.258 44.5029 50.258 48.9661C50.258 53.4918 47.7868 57.4425 44.129 59.5656V42.8371H41.6774V60.6591C40.5153 61.0256 39.2809 61.2242 38 61.2242C36.719 61.2242 35.4846 61.0256 34.3226 60.6591V20.5887L33.6214 20.2565C30.0702 18.5759 28.1935 15.7872 28.1935 12.1919ZM62.5161 52.6435H57.2697L57.0429 53.5813C56.566 55.5536 55.7877 57.4327 54.7273 59.1648L54.2235 59.9885L57.9365 63.7003L52.7354 68.9014L49.0237 65.1884L48.1999 65.6922C46.4666 66.7525 44.5887 67.5309 42.6164 68.0078L41.6774 68.2358V73.4822H34.3226V68.2358L33.3848 68.009C31.4125 67.5322 29.5333 66.7538 27.8013 65.6935L26.9775 65.1896L23.2658 68.9026L18.0647 63.7015L21.7776 59.9898L21.2738 59.166C20.2135 57.4327 19.4351 55.5548 18.9583 53.5825L18.7303 52.6435H13.4838V45.2887H18.7303L18.9571 44.3509C19.4339 42.3786 20.2123 40.4994 21.2726 38.7674L21.7764 37.9436L18.0635 34.2319L23.2646 29.0308L26.9763 32.7438L27.8 32.24C29.0835 31.4542 30.4478 30.8254 31.8697 30.3584V35.5999C26.6318 37.9939 23.2891 43.1472 23.2891 48.9673C23.2891 57.0785 29.8876 63.677 37.9987 63.677C46.1099 63.677 52.7084 57.0785 52.7084 48.9673C52.7084 43.146 49.3657 37.9927 44.1278 35.5999V30.3584C45.5497 30.8266 46.914 31.4555 48.1975 32.24L49.0212 32.7438L52.7329 29.0308L57.934 34.2319L54.2211 37.9436L54.7249 38.7674C55.7852 40.5007 56.5636 42.3786 57.0404 44.3509L57.2697 45.2887H62.5161V52.6435ZM31.8709 38.3445V59.5656C28.2131 57.4425 25.7419 53.4918 25.7419 48.9661C25.7419 44.5042 28.0967 40.5093 31.8709 38.3445Z" fill="white"/>
<path d="M4.90323 60.2239V15.8693C4.90323 15.1939 5.45361 14.6435 6.12903 14.6435H16.161C16.6685 16.0667 18.0169 17.0951 19.6129 17.0951C21.6404 17.0951 23.2903 15.4452 23.2903 13.4177C23.2903 11.3902 21.6404 9.7403 19.6129 9.7403C18.0169 9.7403 16.6685 10.7687 16.161 12.1919H6.12903C4.10155 12.1919 2.45161 13.8418 2.45161 15.8693V60.2239C1.02845 60.7314 0 62.0798 0 63.6758C0 65.7033 1.64994 67.3532 3.67742 67.3532C5.7049 67.3532 7.35484 65.7033 7.35484 63.6758C7.35484 62.0798 6.32639 60.7314 4.90323 60.2239ZM19.6129 12.1919C20.2883 12.1919 20.8387 12.7423 20.8387 13.4177C20.8387 14.0931 20.2883 14.6435 19.6129 14.6435C18.9375 14.6435 18.3871 14.0931 18.3871 13.4177C18.3871 12.7423 18.9375 12.1919 19.6129 12.1919ZM3.67742 64.9016C3.002 64.9016 2.45161 64.3512 2.45161 63.6758C2.45161 63.0004 3.002 62.45 3.67742 62.45C4.35284 62.45 4.90323 63.0004 4.90323 63.6758C4.90323 64.3512 4.35284 64.9016 3.67742 64.9016Z" fill="white"/>
<path d="M9.80635 17.0952H7.35474V19.5468H9.80635V17.0952Z" fill="white"/>
<path d="M9.80635 21.9984H7.35474V24.45H9.80635V21.9984Z" fill="white"/>
<path d="M9.80635 26.9016H7.35474V29.3532H9.80635V26.9016Z" fill="white"/>
<path d="M73.5484 60.2239V15.8693C73.5484 13.8418 71.8985 12.1919 69.871 12.1919H59.839C59.3315 10.7687 57.9831 9.7403 56.3871 9.7403C54.3597 9.7403 52.7097 11.3902 52.7097 13.4177C52.7097 15.4452 54.3597 17.0951 56.3871 17.0951C57.9831 17.0951 59.3315 16.0667 59.839 14.6435H69.871C70.5464 14.6435 71.0968 15.1939 71.0968 15.8693V60.2239C69.6737 60.7314 68.6452 62.0798 68.6452 63.6758C68.6452 65.7033 70.2951 67.3532 72.3226 67.3532C74.3501 67.3532 76 65.7033 76 63.6758C76 62.0798 74.9716 60.7314 73.5484 60.2239ZM56.3871 14.6435C55.7117 14.6435 55.1613 14.0931 55.1613 13.4177C55.1613 12.7423 55.7117 12.1919 56.3871 12.1919C57.0626 12.1919 57.6129 12.7423 57.6129 13.4177C57.6129 14.0931 57.0626 14.6435 56.3871 14.6435ZM72.3226 64.9016C71.6472 64.9016 71.0968 64.3512 71.0968 63.6758C71.0968 63.0004 71.6472 62.45 72.3226 62.45C72.998 62.45 73.5484 63.0004 73.5484 63.6758C73.5484 64.3512 72.998 64.9016 72.3226 64.9016Z" fill="white"/>
<path d="M68.6452 17.0952H66.1936V19.5468H68.6452V17.0952Z" fill="white"/>
<path d="M68.6452 21.9984H66.1936V24.45H68.6452V21.9984Z" fill="white"/>
<path d="M68.6452 26.9016H66.1936V29.3532H68.6452V26.9016Z" fill="white"/>
<path d="M39.2258 56.3209H36.7742V58.7725H39.2258V56.3209Z" fill="white"/>
<path d="M39.2258 51.4177H36.7742V53.8693H39.2258V51.4177Z" fill="white"/>
<path d="M39.2258 46.5145H36.7742V48.9661H39.2258V46.5145Z" fill="white"/>
<path d="M88.008 10.04H90.36V15.48H90.84L92.936 10.04H95.288L92.824 16.168L95.48 23H93.096L90.84 17.032H90.36V23H88.008V10.04ZM96.6323 10.04H100.44C102.648 10.04 103.752 11.2667 103.752 13.72C103.752 16.0667 102.595 17.24 100.28 17.24H98.9843V23H96.6323V10.04ZM99.8963 15.576C100.536 15.576 100.968 15.4427 101.192 15.176C101.416 14.8987 101.528 14.408 101.528 13.704C101.528 13.192 101.491 12.8027 101.416 12.536C101.342 12.2587 101.187 12.0507 100.952 11.912C100.728 11.7733 100.376 11.704 99.8963 11.704H98.9843V15.576H99.8963ZM106.787 10.04H109.315L111.907 23H109.715L109.203 20.008H106.947L106.419 23H104.195L106.787 10.04ZM108.947 18.504L108.067 13.064L107.187 18.504H108.947ZM116.698 23.176C115.354 23.176 114.4 22.8027 113.834 22.056C113.28 21.2987 113.002 20.232 113.002 18.856V14.232C113.002 12.8133 113.28 11.736 113.834 11C114.389 10.264 115.344 9.896 116.698 9.896C117.968 9.896 118.869 10.216 119.402 10.856C119.936 11.496 120.202 12.4187 120.202 13.624V14.712H117.93V13.592C117.93 13.1333 117.909 12.776 117.866 12.52C117.824 12.2533 117.712 12.04 117.53 11.88C117.36 11.7093 117.088 11.624 116.714 11.624C116.33 11.624 116.042 11.7147 115.85 11.896C115.658 12.0667 115.53 12.3013 115.466 12.6C115.413 12.888 115.386 13.2667 115.386 13.736V19.352C115.386 20.088 115.482 20.6213 115.674 20.952C115.866 21.272 116.213 21.432 116.714 21.432C117.077 21.432 117.344 21.3467 117.514 21.176C117.696 21.0053 117.808 20.7813 117.85 20.504C117.904 20.216 117.93 19.8373 117.93 19.368V18.2H120.202V19.24C120.202 20.488 119.941 21.4587 119.418 22.152C118.896 22.8347 117.989 23.176 116.698 23.176ZM121.883 10.04H124.235V15.448H126.875V10.04H129.243V23H126.875V17.144H124.235V23H121.883V10.04ZM134.762 23.176C133.418 23.176 132.458 22.8187 131.882 22.104C131.306 21.3787 131.018 20.3227 131.018 18.936V14.072C131.018 12.696 131.306 11.656 131.882 10.952C132.458 10.248 133.418 9.896 134.762 9.896C136.095 9.896 137.05 10.248 137.626 10.952C138.202 11.656 138.49 12.696 138.49 14.072V18.936C138.49 20.312 138.197 21.3627 137.61 22.088C137.034 22.8133 136.085 23.176 134.762 23.176ZM134.762 21.432C135.285 21.432 135.637 21.2667 135.818 20.936C135.999 20.6053 136.09 20.1253 136.09 19.496V13.528C136.09 12.8987 135.999 12.424 135.818 12.104C135.647 11.784 135.295 11.624 134.762 11.624C134.229 11.624 133.871 11.7893 133.69 12.12C133.509 12.44 133.418 12.9093 133.418 13.528V19.496C133.418 20.1253 133.509 20.6053 133.69 20.936C133.871 21.2667 134.229 21.432 134.762 21.432ZM139.506 21.32H139.97C140.364 21.1067 140.7 20.7707 140.978 20.312C141.255 19.8427 141.495 19.1227 141.698 18.152C141.9 17.1813 142.05 15.8747 142.146 14.232L142.434 10.04H148.162V21.32H149.522V25.576H147.874L147.73 23H141.346L141.186 25.576H139.506V21.32ZM145.922 21.32V11.736H144.29L144.146 14.6C144.071 16.2107 143.938 17.4587 143.746 18.344C143.564 19.2293 143.356 19.8587 143.122 20.232C142.887 20.6053 142.572 20.968 142.178 21.32H145.922ZM152.756 10.04H155.284L157.876 23H155.684L155.172 20.008H152.916L152.388 23H150.164L152.756 10.04ZM154.916 18.504L154.036 13.064L153.156 18.504H154.916ZM159.179 10.04H162.987C165.195 10.04 166.299 11.2667 166.299 13.72C166.299 16.0667 165.142 17.24 162.827 17.24H161.531V23H159.179V10.04ZM162.443 15.576C163.083 15.576 163.515 15.4427 163.739 15.176C163.963 14.8987 164.075 14.408 164.075 13.704C164.075 13.192 164.038 12.8027 163.963 12.536C163.888 12.2587 163.734 12.0507 163.499 11.912C163.275 11.7733 162.923 11.704 162.443 11.704H161.531V15.576H162.443ZM171.105 23.176C169.761 23.176 168.806 22.8027 168.241 22.056C167.686 21.2987 167.409 20.232 167.409 18.856V14.232C167.409 12.8133 167.686 11.736 168.241 11C168.795 10.264 169.75 9.896 171.105 9.896C172.374 9.896 173.275 10.216 173.809 10.856C174.342 11.496 174.609 12.4187 174.609 13.624V14.712H172.337V13.592C172.337 13.1333 172.315 12.776 172.273 12.52C172.23 12.2533 172.118 12.04 171.937 11.88C171.766 11.7093 171.494 11.624 171.121 11.624C170.737 11.624 170.449 11.7147 170.257 11.896C170.065 12.0667 169.937 12.3013 169.873 12.6C169.819 12.888 169.793 13.2667 169.793 13.736V19.352C169.793 20.088 169.889 20.6213 170.081 20.952C170.273 21.272 170.619 21.432 171.121 21.432C171.483 21.432 171.75 21.3467 171.921 21.176C172.102 21.0053 172.214 20.7813 172.257 20.504C172.31 20.216 172.337 19.8373 172.337 19.368V18.2H174.609V19.24C174.609 20.488 174.347 21.4587 173.825 22.152C173.302 22.8347 172.395 23.176 171.105 23.176ZM176.289 10.04H178.641V15.48H179.121L181.217 10.04H183.569L181.105 16.168L183.761 23H181.377L179.121 17.032H178.641V23H176.289V10.04ZM186.85 10.04H189.378L191.97 23H189.778L189.266 20.008H187.01L186.482 23H184.258L186.85 10.04ZM189.01 18.504L188.13 13.064L187.25 18.504H189.01ZM195.065 17.208C194.51 16.9307 194.073 16.4987 193.753 15.912C193.444 15.3147 193.289 14.6 193.289 13.768C193.289 12.4987 193.63 11.56 194.313 10.952C195.006 10.344 196.073 10.04 197.513 10.04H200.505V23H198.153V17.752H197.401H197.113L195.049 23H192.473L195.065 17.208ZM198.153 16.088V11.688H197.577C196.873 11.688 196.345 11.8587 195.993 12.2C195.652 12.5413 195.481 13.064 195.481 13.768C195.481 14.536 195.646 15.1173 195.977 15.512C196.308 15.896 196.857 16.088 197.625 16.088H198.153ZM87.976 34.04H95.448V47H93.112V35.72H90.312V47H87.976V34.04ZM97.3979 34.04H101.206C103.414 34.04 104.518 35.2667 104.518 37.72C104.518 40.0667 103.361 41.24 101.046 41.24H99.7499V47H97.3979V34.04ZM100.662 39.576C101.302 39.576 101.734 39.4427 101.958 39.176C102.182 38.8987 102.294 38.408 102.294 37.704C102.294 37.192 102.257 36.8027 102.182 36.536C102.107 36.2587 101.953 36.0507 101.718 35.912C101.494 35.7733 101.142 35.704 100.662 35.704H99.7499V39.576H100.662ZM109.371 47.176C108.027 47.176 107.067 46.8187 106.491 46.104C105.915 45.3787 105.627 44.3227 105.627 42.936V38.072C105.627 36.696 105.915 35.656 106.491 34.952C107.067 34.248 108.027 33.896 109.371 33.896C110.705 33.896 111.659 34.248 112.235 34.952C112.811 35.656 113.099 36.696 113.099 38.072V42.936C113.099 44.312 112.806 45.3627 112.219 46.088C111.643 46.8133 110.694 47.176 109.371 47.176ZM109.371 45.432C109.894 45.432 110.246 45.2667 110.427 44.936C110.609 44.6053 110.699 44.1253 110.699 43.496V37.528C110.699 36.8987 110.609 36.424 110.427 36.104C110.257 35.784 109.905 35.624 109.371 35.624C108.838 35.624 108.481 35.7893 108.299 36.12C108.118 36.44 108.027 36.9093 108.027 37.528V43.496C108.027 44.1253 108.118 44.6053 108.299 44.936C108.481 45.2667 108.838 45.432 109.371 45.432ZM115.043 34.04H117.491L119.331 43.016L121.235 34.04H123.619L123.859 47H122.099L121.907 37.992L120.067 47H118.643L116.771 37.96L116.595 47H114.819L115.043 34.04ZM125.805 34.04H128.157V39.48H128.733C130.088 39.48 131.09 39.768 131.741 40.344C132.392 40.92 132.717 41.8853 132.717 43.24C132.717 44.6267 132.376 45.6027 131.693 46.168C131.01 46.7227 129.992 47 128.637 47H125.805V34.04ZM133.933 34.04H136.285V47H133.933V34.04ZM128.653 45.4C129.325 45.4 129.805 45.2453 130.093 44.936C130.381 44.6267 130.525 44.0667 130.525 43.256C130.525 42.5307 130.386 41.9973 130.109 41.656C129.832 41.304 129.336 41.128 128.621 41.128H128.157V45.4H128.653ZM138.305 34.04H140.577V45.304H142.513V34.04H144.785V45.304H146.641V34.04H148.913V47H138.305V34.04ZM150.002 45.304C150.546 45.3147 150.935 45.2293 151.17 45.048C151.415 44.856 151.602 44.4293 151.73 43.768C151.858 43.1067 151.981 41.9707 152.098 40.36L152.514 34.04H158.818V47H156.466V35.816H154.594L154.322 40.648C154.215 42.376 154.071 43.6613 153.89 44.504C153.709 45.336 153.367 45.9653 152.866 46.392C152.375 46.808 151.613 47.016 150.578 47.016C150.333 47.016 150.141 47.0107 150.002 47V45.304ZM160.82 34.04H166.26V35.704H163.172V39.432H165.604V41.08H163.172V45.384H166.292V47H160.82V34.04ZM167.696 34.04H170.048V39.448H172.688V34.04H175.056V47H172.688V41.144H170.048V47H167.696V34.04ZM177.071 34.04H179.423V39.448H182.063V34.04H184.431V47H182.063V41.144H179.423V47H177.071V34.04ZM188.35 34.04H190.878L193.47 47H191.278L190.766 44.008H188.51L187.982 47H185.758L188.35 34.04ZM190.51 42.504L189.63 37.064L188.75 42.504H190.51ZM196.565 41.208C196.01 40.9307 195.573 40.4987 195.253 39.912C194.944 39.3147 194.789 38.6 194.789 37.768C194.789 36.4987 195.13 35.56 195.813 34.952C196.506 34.344 197.573 34.04 199.013 34.04H202.005V47H199.653V41.752H198.901H198.613L196.549 47H193.973L196.565 41.208ZM199.653 40.088V35.688H199.077C198.373 35.688 197.845 35.8587 197.493 36.2C197.152 36.5413 196.981 37.064 196.981 37.768C196.981 38.536 197.146 39.1173 197.477 39.512C197.808 39.896 198.357 40.088 199.125 40.088H199.653ZM88.008 58.04H90.36V63.48H90.84L92.936 58.04H95.288L92.824 64.168L95.48 71H93.096L90.84 65.032H90.36V71H88.008V58.04ZM100.168 71.176C98.8243 71.176 97.8643 70.8187 97.2883 70.104C96.7123 69.3787 96.4243 68.3227 96.4243 66.936V62.072C96.4243 60.696 96.7123 59.656 97.2883 58.952C97.8643 58.248 98.8243 57.896 100.168 57.896C101.502 57.896 102.456 58.248 103.032 58.952C103.608 59.656 103.896 60.696 103.896 62.072V66.936C103.896 68.312 103.603 69.3627 103.016 70.088C102.44 70.8133 101.491 71.176 100.168 71.176ZM100.168 69.432C100.691 69.432 101.043 69.2667 101.224 68.936C101.406 68.6053 101.496 68.1253 101.496 67.496V61.528C101.496 60.8987 101.406 60.424 101.224 60.104C101.054 59.784 100.702 59.624 100.168 59.624C99.6349 59.624 99.2776 59.7893 99.0963 60.12C98.9149 60.44 98.8243 60.9093 98.8243 61.528V67.496C98.8243 68.1253 98.9149 68.6053 99.0963 68.936C99.2776 69.2667 99.6349 69.432 100.168 69.432ZM105.84 58.04H108.288L110.128 67.016L112.032 58.04H114.416L114.656 71H112.896L112.704 61.992L110.864 71H109.44L107.568 61.96L107.392 71H105.616L105.84 58.04ZM116.57 58.04H124.042V71H121.706V59.72H118.906V71H116.57V58.04ZM127.928 58.04H130.456L133.048 71H130.856L130.344 68.008H128.088L127.56 71H125.336L127.928 58.04ZM130.088 66.504L129.208 61.064L128.328 66.504H130.088ZM134.383 58.04H136.735V63.448H139.375V58.04H141.743V71H139.375V65.144H136.735V71H134.383V58.04ZM143.758 58.04H145.694V66.216L149.246 58.04H150.83V71H148.862V62.68L145.31 71H143.758V58.04ZM154.612 65.208C154.057 64.9307 153.62 64.4987 153.3 63.912C152.99 63.3147 152.836 62.6 152.836 61.768C152.836 60.4987 153.177 59.56 153.86 58.952C154.553 58.344 155.62 58.04 157.06 58.04H160.052V71H157.7V65.752H156.948H156.66L154.596 71H152.02L154.612 65.208ZM157.7 64.088V59.688H157.124C156.42 59.688 155.892 59.8587 155.54 60.2C155.198 60.5413 155.028 61.064 155.028 61.768C155.028 62.536 155.193 63.1173 155.524 63.512C155.854 63.896 156.404 64.088 157.172 64.088H157.7Z" fill="white"/>
</svg>
