<svg width="148" height="148" viewBox="0 0 148 148" fill="none" xmlns="http://www.w3.org/2000/svg">
<circle cx="74.2437" cy="74.3075" r="73.3167" fill="#0157A0"/>
<mask id="mask0" mask-type="alpha" maskUnits="userSpaceOnUse" x="0" y="0" width="148" height="148">
<circle cx="74.2437" cy="74.3075" r="73.3167" fill="#0157A0"/>
</mask>
<g mask="url(#mask0)">
<path d="M66.1342 115.432L59.4369 108.735C58.5637 107.861 57.1523 107.861 56.2791 108.735C55.406 109.608 55.406 111.019 56.2791 111.892L59.1667 114.78H6.48325V90.2146C6.48325 88.9797 5.485 87.9814 4.25005 87.9814C3.01509 87.9814 2.01685 88.9797 2.01685 90.2146V117.013C2.01685 118.248 3.01509 119.246 4.25005 119.246H59.1667L56.2791 122.134C55.406 123.007 55.406 124.418 56.2791 125.292C56.7146 125.727 57.2863 125.946 57.858 125.946C58.4297 125.946 59.0014 125.727 59.4369 125.292L66.1342 118.594C66.3419 118.389 66.505 118.141 66.6189 117.866C66.8466 117.321 66.8466 116.705 66.6189 116.16C66.505 115.888 66.3397 115.637 66.1342 115.432Z" fill="#006ACC"/>
<path d="M93.6005 61.1832C94.8355 61.1832 95.8337 60.185 95.8337 58.95V32.1516C95.8337 30.9167 94.8355 29.9184 93.6005 29.9184H52.0786L54.9661 27.0309C55.8393 26.1577 55.8393 24.7463 54.9661 23.8731C54.0929 23 52.6816 23 51.8084 23.8731L45.111 30.5705C44.9033 30.776 44.7381 31.0261 44.6264 31.3008C44.3986 31.8457 44.3986 32.462 44.6264 33.0069C44.7403 33.2816 44.9033 33.5295 45.111 33.735L51.8084 40.4323C52.2439 40.8678 52.8156 41.0867 53.3873 41.0867C53.959 41.0867 54.5307 40.8678 54.9661 40.4323C55.8393 39.5592 55.8393 38.1478 54.9661 37.2746L52.0786 34.3871H91.3695V58.9523C91.3673 60.185 92.3678 61.1832 93.6005 61.1832Z" fill="#006ACC"/>
<path d="M93.6384 88.0308C87.4815 88.0308 82.4724 93.0376 82.4724 99.1923C82.4724 105.349 87.4815 110.358 93.6384 110.358C99.7953 110.358 104.804 105.349 104.804 99.1923C104.804 93.0376 99.7953 88.0308 93.6384 88.0308ZM93.6384 105.892C89.9447 105.892 86.9388 102.886 86.9388 99.1923C86.9388 95.5008 89.9447 92.4972 93.6384 92.4972C97.3321 92.4972 100.338 95.5008 100.338 99.1923C100.338 102.886 97.3321 105.892 93.6384 105.892Z" fill="#006ACC"/>
<path d="M115.968 67.9186C115.968 67.3246 115.734 66.7574 115.314 66.3398C114.894 65.9221 114.329 65.6854 113.735 65.6854L73.5507 65.6988C72.3158 65.6988 71.3175 66.6993 71.3175 67.932V74.5847C71.3175 74.5959 71.3108 74.6071 71.3108 74.6182C71.3108 74.6294 71.3175 74.6406 71.3175 74.6517V123.717C71.3175 123.729 71.3108 123.74 71.3108 123.751C71.3108 123.762 71.3175 123.773 71.3175 123.784V130.332C71.3153 130.377 71.293 130.41 71.293 130.453V137.152V143.852C71.293 145.087 72.2912 146.085 73.5262 146.085H113.724C114.959 146.085 115.957 145.087 115.957 143.852V137.152V130.506C115.957 130.486 115.968 130.471 115.968 130.453V123.769C115.968 123.764 115.97 123.762 115.97 123.758C115.97 123.753 115.968 123.751 115.968 123.746V67.9186ZM75.7839 70.1652H77.3762C76.9899 70.8263 76.445 71.3712 75.7839 71.7597V70.1652ZM75.7839 126.607C76.4494 126.998 76.9988 127.55 77.3874 128.215H75.7839V126.607ZM111.491 141.614H75.7594V139.381H111.491V141.614ZM111.491 134.915H75.7594V132.681H80.2213C80.2302 132.681 80.2369 132.686 80.2436 132.686C80.2503 132.686 80.257 132.681 80.266 132.681H111.491V134.915ZM111.502 128.215H109.898C110.287 127.55 110.836 126.998 111.502 126.609V128.215ZM111.502 121.839C108.384 122.652 105.941 125.095 105.128 128.215H82.1575C81.3468 125.093 78.9037 122.648 75.7839 121.835V76.5321C78.8992 75.7214 81.3379 73.2783 82.1508 70.163L105.128 70.1541C105.937 73.2738 108.382 75.7214 111.502 76.5321V121.839ZM111.502 71.7642C110.834 71.3734 110.285 70.8218 109.896 70.1518H111.502V71.7642Z" fill="#006ACC"/>
<path d="M40.0416 81.3378V29.9675C40.0416 29.8781 39.9992 29.8022 39.9925 29.7173C39.9747 29.5655 39.9501 29.4181 39.9032 29.2729C39.8541 29.1233 39.7826 28.9893 39.7044 28.8553C39.6598 28.7816 39.6486 28.699 39.595 28.6275L32.8954 19.6947C32.8641 19.6523 32.8172 19.6344 32.7837 19.5942C32.6788 19.4737 32.5604 19.3776 32.4331 19.2816C32.3237 19.199 32.221 19.1163 32.1004 19.056C31.9753 18.9935 31.8458 18.9578 31.7096 18.9176C31.5622 18.8752 31.4148 18.8394 31.2607 18.8283C31.2093 18.8238 31.1647 18.797 31.1111 18.797H-18.0283C-18.0796 18.797 -18.1265 18.8238 -18.1779 18.8283C-18.3342 18.8394 -18.4816 18.8752 -18.6312 18.9198C-18.7652 18.96 -18.8948 18.9958 -19.0131 19.056C-19.1404 19.1186 -19.2454 19.2034 -19.3593 19.2883C-19.4821 19.3821 -19.5982 19.4737 -19.6987 19.5898C-19.7344 19.63 -19.7813 19.6501 -19.8148 19.6925L-26.5211 28.6253C-26.5747 28.6968 -26.5881 28.7816 -26.6328 28.8576C-26.7087 28.9916 -26.778 29.1211 -26.8248 29.2685C-26.874 29.4136 -26.8963 29.5588 -26.9142 29.7106C-26.9253 29.8 -26.9678 29.8759 -26.9678 29.9675V81.3378C-26.9678 82.5727 -25.9695 83.571 -24.7346 83.571H37.8084C39.0434 83.571 40.0416 82.5727 40.0416 81.3378ZM29.9945 23.2679L33.3443 27.7343H14.9807L13.8663 23.2679H29.9945ZM3.81467 23.2679H9.26368L10.378 27.7343H2.7003L3.81467 23.2679ZM2.075 32.2007H11.0033V36.6738H2.075V32.2007ZM-16.9117 23.2679H-0.785727L-1.90009 27.7343H-20.2659L-16.9117 23.2679ZM35.5752 79.1046H-22.5014V32.2007H-2.3914V38.907C-2.3914 40.1419 -1.39316 41.1402 -0.158197 41.1402H13.2365C14.4715 41.1402 15.4697 40.1419 15.4697 38.907V32.2007H35.5752V79.1046Z" fill="#006ACC"/>
<path d="M2.07495 63.47H-15.7951C-17.0301 63.47 -18.0283 64.4682 -18.0283 65.7032C-18.0283 66.9381 -17.0301 67.9364 -15.7951 67.9364H2.07495C3.30991 67.9364 4.30815 66.9381 4.30815 65.7032C4.30815 64.4682 3.30991 63.47 2.07495 63.47Z" fill="#006ACC"/>
</g>
<path d="M84.109 94.7151L80.3602 90.9663C79.8715 90.4776 79.0815 90.4776 78.5927 90.9663C78.104 91.4551 78.104 92.2451 78.5927 92.7339L80.209 94.3501H50.7202V80.6001C50.7202 79.9088 50.1615 79.3501 49.4702 79.3501C48.779 79.3501 48.2202 79.9088 48.2202 80.6001V95.6001C48.2202 96.2914 48.779 96.8501 49.4702 96.8501H80.209L78.5927 98.4664C78.104 98.9551 78.104 99.7451 78.5927 100.234C78.8365 100.478 79.1565 100.6 79.4765 100.6C79.7965 100.6 80.1165 100.478 80.3602 100.234L84.109 96.4851C84.2252 96.3701 84.3165 96.2313 84.3802 96.0776C84.5077 95.7726 84.5077 95.4276 84.3802 95.1226C84.3165 94.9701 84.224 94.8301 84.109 94.7151Z" fill="white"/>
<path d="M99.4825 64.3502C100.174 64.3502 100.732 63.7914 100.732 63.1002V48.1002C100.732 47.4089 100.174 46.8502 99.4825 46.8502H76.2412L77.8575 45.2339C78.3462 44.7452 78.3462 43.9552 77.8575 43.4664C77.3687 42.9777 76.5787 42.9777 76.09 43.4664L72.3412 47.2152C72.225 47.3302 72.1325 47.4702 72.07 47.6239C71.9425 47.9289 71.9425 48.2739 72.07 48.5789C72.1337 48.7327 72.225 48.8714 72.3412 48.9864L76.09 52.7352C76.3337 52.9789 76.6537 53.1014 76.9737 53.1014C77.2937 53.1014 77.6137 52.9789 77.8575 52.7352C78.3462 52.2464 78.3462 51.4564 77.8575 50.9677L76.2412 49.3514H98.2337V63.1014C98.2325 63.7914 98.7925 64.3502 99.4825 64.3502Z" fill="white"/>
<path d="M99.5039 79.3777C96.0577 79.3777 93.2539 82.1802 93.2539 85.6252C93.2539 89.0714 96.0577 91.8752 99.5039 91.8752C102.95 91.8752 105.754 89.0714 105.754 85.6252C105.754 82.1802 102.95 79.3777 99.5039 79.3777ZM99.5039 89.3752C97.4364 89.3752 95.7539 87.6927 95.7539 85.6252C95.7539 83.5589 97.4364 81.8777 99.5039 81.8777C101.571 81.8777 103.254 83.5589 103.254 85.6252C103.254 87.6927 101.571 89.3752 99.5039 89.3752Z" fill="white"/>
<path d="M112.003 68.1202C112.003 67.7877 111.871 67.4702 111.636 67.2365C111.401 67.0027 111.085 66.8702 110.753 66.8702L88.2601 66.8777C87.5688 66.8777 87.0101 67.4377 87.0101 68.1277V71.8515C87.0101 71.8577 87.0063 71.864 87.0063 71.8702C87.0063 71.8765 87.0101 71.8827 87.0101 71.889V99.3527C87.0101 99.359 87.0063 99.3652 87.0063 99.3715C87.0063 99.3777 87.0101 99.384 87.0101 99.3902V103.055C87.0088 103.08 86.9963 103.099 86.9963 103.123V106.873V110.623C86.9963 111.314 87.5551 111.873 88.2463 111.873H110.746C111.438 111.873 111.996 111.314 111.996 110.623V106.873V103.153C111.996 103.141 112.003 103.133 112.003 103.123V99.3815C112.003 99.379 112.004 99.3777 112.004 99.3752C112.004 99.3727 112.003 99.3715 112.003 99.369V68.1202ZM89.5101 69.3777H90.4013C90.1851 69.7477 89.8801 70.0527 89.5101 70.2702V69.3777ZM89.5101 100.97C89.8826 101.189 90.1901 101.498 90.4076 101.87H89.5101V100.97ZM109.496 109.37H89.4963V108.12H109.496V109.37ZM109.496 105.62H89.4963V104.37H91.9938C91.9988 104.37 92.0026 104.373 92.0063 104.373C92.0101 104.373 92.0138 104.37 92.0188 104.37H109.496V105.62ZM109.503 101.87H108.605C108.823 101.498 109.13 101.189 109.503 100.971V101.87ZM109.503 98.3015C107.758 98.7565 106.39 100.124 105.935 101.87H93.0776C92.6238 100.123 91.2563 98.754 89.5101 98.299V72.9415C91.2538 72.4877 92.6188 71.1202 93.0738 69.3765L105.935 69.3715C106.388 71.1177 107.756 72.4877 109.503 72.9415V98.3015ZM109.503 70.2727C109.129 70.054 108.821 69.7452 108.604 69.3702H109.503V70.2727Z" fill="white"/>
<path d="M69.5038 75.6314V46.8776C69.5038 46.8276 69.4801 46.7851 69.4763 46.7376C69.4663 46.6526 69.4526 46.5701 69.4263 46.4889C69.3988 46.4051 69.3588 46.3301 69.3151 46.2551C69.2901 46.2139 69.2838 46.1676 69.2538 46.1276L65.5038 41.1276C65.4863 41.1039 65.4601 41.0939 65.4413 41.0714C65.3826 41.0039 65.3163 40.9501 65.2451 40.8964C65.1838 40.8501 65.1263 40.8039 65.0588 40.7701C64.9888 40.7351 64.9163 40.7151 64.8401 40.6926C64.7576 40.6689 64.6751 40.6489 64.5888 40.6426C64.5601 40.6401 64.5351 40.6251 64.5051 40.6251H37.0001C36.9713 40.6251 36.9451 40.6401 36.9163 40.6426C36.8288 40.6489 36.7463 40.6689 36.6626 40.6939C36.5876 40.7164 36.5151 40.7364 36.4488 40.7701C36.3776 40.8051 36.3188 40.8526 36.2551 40.9001C36.1863 40.9526 36.1213 41.0039 36.0651 41.0689C36.0451 41.0914 36.0188 41.1026 36.0001 41.1264L32.2463 46.1264C32.2163 46.1664 32.2088 46.2139 32.1838 46.2564C32.1413 46.3314 32.1026 46.4039 32.0763 46.4864C32.0488 46.5676 32.0363 46.6489 32.0263 46.7339C32.0201 46.7839 31.9963 46.8264 31.9963 46.8776V75.6314C31.9963 76.3226 32.5551 76.8814 33.2463 76.8814H68.2538C68.9451 76.8814 69.5038 76.3226 69.5038 75.6314ZM63.8801 43.1276L65.7551 45.6276H55.4763L54.8526 43.1276H63.8801ZM49.2263 43.1276H52.2763L52.9001 45.6276H48.6026L49.2263 43.1276ZM48.2526 48.1276H53.2501V50.6314H48.2526V48.1276ZM37.6251 43.1276H46.6513L46.0276 45.6276H35.7476L37.6251 43.1276ZM67.0038 74.3814H34.4963V48.1276H45.7526V51.8814C45.7526 52.5726 46.3113 53.1314 47.0026 53.1314H54.5001C55.1913 53.1314 55.7501 52.5726 55.7501 51.8814V48.1276H67.0038V74.3814Z" fill="white"/>
<path d="M48.2525 65.6301H38.25C37.5588 65.6301 37 66.1889 37 66.8801C37 67.5714 37.5588 68.1301 38.25 68.1301H48.2525C48.9438 68.1301 49.5025 67.5714 49.5025 66.8801C49.5025 66.1889 48.9438 65.6301 48.2525 65.6301Z" fill="white"/>
<path d="M43.2513 69.3801H38.25C37.5588 69.3801 37 69.9389 37 70.6301C37 71.3214 37.5588 71.8801 38.25 71.8801H43.2513C43.9425 71.8801 44.5013 71.3214 44.5013 70.6301C44.5013 69.9389 43.9425 69.3801 43.2513 69.3801Z" fill="white"/>
</svg>
