<svg width="20" height="22" viewBox="0 0 20 22" fill="none" xmlns="http://www.w3.org/2000/svg">
<path d="M8.70709 6.57088L8.70717 6.57086L8.70385 6.55881C8.43171 5.57077 8.28348 4.50798 8.28348 3.39676C8.28348 2.49439 7.63812 1.43665 6.483 1.43665H3.68134C2.52622 1.43665 1.88086 2.49439 1.88086 3.39676C1.88086 12.7865 8.25763 20.7186 16.489 20.7186C17.6441 20.7186 18.2894 19.6609 18.2894 18.7585V15.4077C18.2894 14.5054 17.6441 13.4476 16.489 13.4476C15.6272 13.4476 14.785 13.2812 14.0041 12.9725C13.2788 12.6781 12.5096 12.9353 12.0467 13.4904L10.8623 14.911C9.25503 13.7368 7.8961 12.0764 6.9467 10.0764L8.3077 8.44403L7.53963 7.80366L8.3077 8.44403C8.76372 7.89706 8.86668 7.17991 8.70709 6.57088Z" stroke="#006ACC" stroke-width="2"/>
</svg>
